<?xml version="1.0" encoding="UTF-8" standalone="no"?>
<!DOCTYPE svg PUBLIC "-//W3C//DTD SVG 1.1//EN"
 "http://www.w3.org/Graphics/SVG/1.1/DTD/svg11.dtd">
<!-- Generated by graphviz version 2.38.0 (20140413.2041)
 -->
<!-- Title: G Pages: 1 -->
<svg width="790pt" height="1668pt"
 viewBox="0.00 0.00 790.00 1668.00" xmlns="http://www.w3.org/2000/svg" xmlns:xlink="http://www.w3.org/1999/xlink">
<g id="graph0" class="graph" transform="scale(1 1) rotate(0) translate(4 1664)">
<title>G</title>
<polygon fill="white" stroke="none" points="-4,4 -4,-1664 786,-1664 786,4 -4,4"/>
<g id="clust1" class="cluster"><title>cluster_Global</title>
<path fill="none" stroke="gray" d="M20,-8C20,-8 762,-8 762,-8 768,-8 774,-14 774,-20 774,-20 774,-1640 774,-1640 774,-1646 768,-1652 762,-1652 762,-1652 20,-1652 20,-1652 14,-1652 8,-1646 8,-1640 8,-1640 8,-20 8,-20 8,-14 14,-8 20,-8"/>
<text text-anchor="middle" x="391" y="-1639.2" font-family="Times New Roman,serif" font-size="11.00" fill="gray">Global</text>
</g>
<g id="clust2" class="cluster"><title>cluster_\Famephp</title>
<path fill="none" stroke="gray" d="M28,-16C28,-16 754,-16 754,-16 760,-16 766,-22 766,-28 766,-28 766,-1612 766,-1612 766,-1618 760,-1624 754,-1624 754,-1624 28,-1624 28,-1624 22,-1624 16,-1618 16,-1612 16,-1612 16,-28 16,-28 16,-22 22,-16 28,-16"/>
<text text-anchor="middle" x="391" y="-1611.2" font-family="Times New Roman,serif" font-size="11.00" fill="gray">Famephp</text>
</g>
<g id="clust3" class="cluster"><title>cluster_\Famephp\core</title>
<path fill="none" stroke="gray" d="M36,-346C36,-346 746,-346 746,-346 752,-346 758,-352 758,-358 758,-358 758,-1584 758,-1584 758,-1590 752,-1596 746,-1596 746,-1596 36,-1596 36,-1596 30,-1596 24,-1590 24,-1584 24,-1584 24,-358 24,-358 24,-352 30,-346 36,-346"/>
<text text-anchor="middle" x="391" y="-1583.2" font-family="Times New Roman,serif" font-size="11.00" fill="gray">core</text>
</g>
<g id="clust4" class="cluster"><title>cluster_\Famephp\core\buttons</title>
<path fill="none" stroke="gray" d="M241,-1046C241,-1046 576,-1046 576,-1046 582,-1046 588,-1052 588,-1058 588,-1058 588,-1556 588,-1556 588,-1562 582,-1568 576,-1568 576,-1568 241,-1568 241,-1568 235,-1568 229,-1562 229,-1556 229,-1556 229,-1058 229,-1058 229,-1052 235,-1046 241,-1046"/>
<text text-anchor="middle" x="408.5" y="-1555.2" font-family="Times New Roman,serif" font-size="11.00" fill="gray">buttons</text>
</g>
<g id="clust5" class="cluster"><title>cluster_\Famephp\core\buttons\QuickReplies</title>
<path fill="none" stroke="gray" d="M397,-1262C397,-1262 568,-1262 568,-1262 574,-1262 580,-1268 580,-1274 580,-1274 580,-1484 580,-1484 580,-1490 574,-1496 568,-1496 568,-1496 397,-1496 397,-1496 391,-1496 385,-1490 385,-1484 385,-1484 385,-1274 385,-1274 385,-1268 391,-1262 397,-1262"/>
<text text-anchor="middle" x="482.5" y="-1483.2" font-family="Times New Roman,serif" font-size="11.00" fill="gray">QuickReplies</text>
</g>
<g id="clust7" class="cluster"><title>cluster_\Famephp\core\templates</title>
<path fill="none" stroke="gray" d="M241,-804C241,-804 738,-804 738,-804 744,-804 750,-810 750,-816 750,-816 750,-1026 750,-1026 750,-1032 744,-1038 738,-1038 738,-1038 241,-1038 241,-1038 235,-1038 229,-1032 229,-1026 229,-1026 229,-816 229,-816 229,-810 235,-804 241,-804"/>
<text text-anchor="middle" x="489.5" y="-1025.2" font-family="Times New Roman,serif" font-size="11.00" fill="gray">templates</text>
</g>
<g id="clust6" class="cluster"><title>cluster_\Famephp\core\contracts</title>
<path fill="none" stroke="gray" d="M44,-1060C44,-1060 161,-1060 161,-1060 167,-1060 173,-1066 173,-1072 173,-1072 173,-1120 173,-1120 173,-1126 167,-1132 161,-1132 161,-1132 44,-1132 44,-1132 38,-1132 32,-1126 32,-1120 32,-1120 32,-1072 32,-1072 32,-1066 38,-1060 44,-1060"/>
<text text-anchor="middle" x="102.5" y="-1119.2" font-family="Times New Roman,serif" font-size="11.00" fill="gray">contracts</text>
</g>
<g id="clust8" class="cluster"><title>cluster_\Famephp\core\attachments</title>
<path fill="none" stroke="gray" d="M444.5,-508C444.5,-508 716,-508 716,-508 722,-508 728,-514 728,-520 728,-520 728,-784 728,-784 728,-790 722,-796 716,-796 716,-796 444.5,-796 444.5,-796 438.5,-796 432.5,-790 432.5,-784 432.5,-784 432.5,-520 432.5,-520 432.5,-514 438.5,-508 444.5,-508"/>
<text text-anchor="middle" x="580.25" y="-783.2" font-family="Times New Roman,serif" font-size="11.00" fill="gray">attachments</text>
</g>
<g id="clust9" class="cluster"><title>cluster_\Famephp\core\visuals</title>
<path fill="none" stroke="gray" d="M241,-724C241,-724 317,-724 317,-724 323,-724 329,-730 329,-736 329,-736 329,-784 329,-784 329,-790 323,-796 317,-796 317,-796 241,-796 241,-796 235,-796 229,-790 229,-784 229,-784 229,-736 229,-736 229,-730 235,-724 241,-724"/>
<text text-anchor="middle" x="279" y="-783.2" font-family="Times New Roman,serif" font-size="11.00" fill="gray">visuals</text>
</g>
<g id="clust10" class="cluster"><title>cluster_\Famephp\api</title>
<path fill="none" stroke="gray" d="M648,-104C648,-104 738,-104 738,-104 744,-104 750,-110 750,-116 750,-116 750,-326 750,-326 750,-332 744,-338 738,-338 738,-338 648,-338 648,-338 642,-338 636,-332 636,-326 636,-326 636,-116 636,-116 636,-110 642,-104 648,-104"/>
<text text-anchor="middle" x="693" y="-325.2" font-family="Times New Roman,serif" font-size="11.00" fill="gray">api</text>
</g>
<g id="clust11" class="cluster"><title>cluster_\Famephp\app</title>
<path fill="none" stroke="gray" d="M670,-24C670,-24 716,-24 716,-24 722,-24 728,-30 728,-36 728,-36 728,-84 728,-84 728,-90 722,-96 716,-96 716,-96 670,-96 670,-96 664,-96 658,-90 658,-84 658,-84 658,-36 658,-36 658,-30 664,-24 670,-24"/>
<text text-anchor="middle" x="693" y="-83.2" font-family="Times New Roman,serif" font-size="11.00" fill="gray">app</text>
</g>
<!-- \\Famephp\\core\\buttons\\QuickReplies\\PhoneQuickReplyButton -->
<g id="node1" class="node"><title>\\Famephp\\core\\buttons\\QuickReplies\\PhoneQuickReplyButton</title>
<polygon fill="none" stroke="black" points="561.5,-1468 403.5,-1468 403.5,-1432 561.5,-1432 561.5,-1468"/>
<text text-anchor="middle" x="482.5" y="-1447.2" font-family="Courier,monospace" font-size="11.00">PhoneQuickReplyButton</text>
</g>
<!-- \\Famephp\\core\\buttons\\Button -->
<g id="node9" class="node"><title>\\Famephp\\core\\buttons\\Button</title>
<polygon fill="none" stroke="black" points="321,-1252 237,-1252 237,-1216 321,-1216 321,-1252"/>
<text text-anchor="start" x="245" y="-1237.2" font-family="Courier,monospace" font-size="11.00">«abstract»</text>
<text text-anchor="start" x="258.5" y="-1225.2" font-family="Courier,monospace" font-size="11.00">Button</text>
</g>
<!-- \\Famephp\\core\\buttons\\QuickReplies\\PhoneQuickReplyButton&#45;&gt;\\Famephp\\core\\buttons\\Button -->
<g id="edge13" class="edge"><title>\\Famephp\\core\\buttons\\QuickReplies\\PhoneQuickReplyButton&#45;&gt;\\Famephp\\core\\buttons\\Button</title>
<path fill="none" stroke="black" d="M403.479,-1434.21C396.879,-1431.12 390.598,-1427.42 385,-1423 331.494,-1380.76 301.061,-1303.33 287.892,-1261.9"/>
<polygon fill="none" stroke="black" points="291.191,-1260.72 284.912,-1252.19 284.498,-1262.78 291.191,-1260.72"/>
</g>
<!-- \\Famephp\\core\\buttons\\QuickReplies\\TextQuickReplyButton -->
<g id="node2" class="node"><title>\\Famephp\\core\\buttons\\QuickReplies\\TextQuickReplyButton</title>
<polygon fill="none" stroke="black" points="558.5,-1414 406.5,-1414 406.5,-1378 558.5,-1378 558.5,-1414"/>
<text text-anchor="middle" x="482.5" y="-1393.2" font-family="Courier,monospace" font-size="11.00">TextQuickReplyButton</text>
</g>
<!-- \\Famephp\\core\\buttons\\QuickReplies\\TextQuickReplyButton&#45;&gt;\\Famephp\\core\\buttons\\Button -->
<g id="edge18" class="edge"><title>\\Famephp\\core\\buttons\\QuickReplies\\TextQuickReplyButton&#45;&gt;\\Famephp\\core\\buttons\\Button</title>
<path fill="none" stroke="black" d="M406.143,-1380.1C398.696,-1377.03 391.499,-1373.36 385,-1369 343.671,-1341.25 311.44,-1291.95 294.117,-1261.22"/>
<polygon fill="none" stroke="black" points="297.112,-1259.4 289.226,-1252.33 290.978,-1262.78 297.112,-1259.4"/>
</g>
<!-- \\Famephp\\core\\buttons\\QuickReplies\\EmailQuickReplyButton -->
<g id="node3" class="node"><title>\\Famephp\\core\\buttons\\QuickReplies\\EmailQuickReplyButton</title>
<polygon fill="none" stroke="black" points="561.5,-1360 403.5,-1360 403.5,-1324 561.5,-1324 561.5,-1360"/>
<text text-anchor="middle" x="482.5" y="-1339.2" font-family="Courier,monospace" font-size="11.00">EmailQuickReplyButton</text>
</g>
<!-- \\Famephp\\core\\buttons\\QuickReplies\\EmailQuickReplyButton&#45;&gt;\\Famephp\\core\\buttons\\Button -->
<g id="edge19" class="edge"><title>\\Famephp\\core\\buttons\\QuickReplies\\EmailQuickReplyButton&#45;&gt;\\Famephp\\core\\buttons\\Button</title>
<path fill="none" stroke="black" d="M406.14,-1324C398.849,-1321.34 391.687,-1318.35 385,-1315 355.751,-1300.33 326.613,-1276.98 306.48,-1259.11"/>
<polygon fill="none" stroke="black" points="308.726,-1256.42 298.959,-1252.32 304.034,-1261.62 308.726,-1256.42"/>
</g>
<!-- \\Famephp\\core\\buttons\\QuickReplies\\LocationQuickReplyButton -->
<g id="node4" class="node"><title>\\Famephp\\core\\buttons\\QuickReplies\\LocationQuickReplyButton</title>
<polygon fill="none" stroke="black" points="572,-1306 393,-1306 393,-1270 572,-1270 572,-1306"/>
<text text-anchor="middle" x="482.5" y="-1285.2" font-family="Courier,monospace" font-size="11.00">LocationQuickReplyButton</text>
</g>
<!-- \\Famephp\\core\\buttons\\QuickReplies\\LocationQuickReplyButton&#45;&gt;\\Famephp\\core\\buttons\\Button -->
<g id="edge22" class="edge"><title>\\Famephp\\core\\buttons\\QuickReplies\\LocationQuickReplyButton&#45;&gt;\\Famephp\\core\\buttons\\Button</title>
<path fill="none" stroke="black" d="M400.572,-1270C395.293,-1268.69 390.065,-1267.35 385,-1266 367.296,-1261.29 348.081,-1255.61 330.988,-1250.34"/>
<polygon fill="none" stroke="black" points="331.784,-1246.92 321.196,-1247.3 329.709,-1253.61 331.784,-1246.92"/>
</g>
<!-- \\Famephp\\core\\buttons\\ShareButton -->
<g id="node5" class="node"><title>\\Famephp\\core\\buttons\\ShareButton</title>
<polygon fill="none" stroke="black" points="528,-1252 437,-1252 437,-1216 528,-1216 528,-1252"/>
<text text-anchor="middle" x="482.5" y="-1231.2" font-family="Courier,monospace" font-size="11.00">ShareButton</text>
</g>
<!-- \\Famephp\\core\\buttons\\ShareButton&#45;&gt;\\Famephp\\core\\buttons\\Button -->
<g id="edge1" class="edge"><title>\\Famephp\\core\\buttons\\ShareButton&#45;&gt;\\Famephp\\core\\buttons\\Button</title>
<path fill="none" stroke="black" d="M436.781,-1234C405.603,-1234 363.93,-1234 331.385,-1234"/>
<polygon fill="none" stroke="black" points="331.164,-1230.5 321.164,-1234 331.164,-1237.5 331.164,-1230.5"/>
</g>
<!-- \\Famephp\\core\\buttons\\URLButton -->
<g id="node6" class="node"><title>\\Famephp\\core\\buttons\\URLButton</title>
<polygon fill="none" stroke="black" points="521,-1198 444,-1198 444,-1162 521,-1162 521,-1198"/>
<text text-anchor="middle" x="482.5" y="-1177.2" font-family="Courier,monospace" font-size="11.00">URLButton</text>
</g>
<!-- \\Famephp\\core\\buttons\\URLButton&#45;&gt;\\Famephp\\core\\buttons\\Button -->
<g id="edge5" class="edge"><title>\\Famephp\\core\\buttons\\URLButton&#45;&gt;\\Famephp\\core\\buttons\\Button</title>
<path fill="none" stroke="black" d="M443.599,-1190.16C411.849,-1198.67 366.232,-1210.89 331.23,-1220.27"/>
<polygon fill="none" stroke="black" points="329.951,-1216.99 321.198,-1222.96 331.763,-1223.75 329.951,-1216.99"/>
</g>
<!-- \\Famephp\\core\\buttons\\CallButton -->
<g id="node7" class="node"><title>\\Famephp\\core\\buttons\\CallButton</title>
<polygon fill="none" stroke="black" points="524.5,-1144 440.5,-1144 440.5,-1108 524.5,-1108 524.5,-1144"/>
<text text-anchor="middle" x="482.5" y="-1123.2" font-family="Courier,monospace" font-size="11.00">CallButton</text>
</g>
<!-- \\Famephp\\core\\buttons\\CallButton&#45;&gt;\\Famephp\\core\\buttons\\Button -->
<g id="edge11" class="edge"><title>\\Famephp\\core\\buttons\\CallButton&#45;&gt;\\Famephp\\core\\buttons\\Button</title>
<path fill="none" stroke="black" d="M440.307,-1133.84C422.695,-1138.12 402.261,-1144.34 385,-1153 355.751,-1167.67 326.613,-1191.02 306.48,-1208.89"/>
<polygon fill="none" stroke="black" points="304.034,-1206.38 298.959,-1215.68 308.726,-1211.58 304.034,-1206.38"/>
</g>
<!-- \\Famephp\\core\\buttons\\ButtonList -->
<g id="node8" class="node"><title>\\Famephp\\core\\buttons\\ButtonList</title>
<polygon fill="none" stroke="black" points="524.5,-1540 440.5,-1540 440.5,-1504 524.5,-1504 524.5,-1540"/>
<text text-anchor="middle" x="482.5" y="-1519.2" font-family="Courier,monospace" font-size="11.00">ButtonList</text>
</g>
<!-- \\Famephp\\core\\contracts\\JsonSerializable -->
<g id="node11" class="node"><title>\\Famephp\\core\\contracts\\JsonSerializable</title>
<polygon fill="none" stroke="black" points="165,-1104 40,-1104 40,-1068 165,-1068 165,-1104"/>
<text text-anchor="middle" x="102.5" y="-1083.2" font-family="Courier,monospace" font-size="11.00">JsonSerializable</text>
</g>
<!-- \\Famephp\\core\\buttons\\ButtonList&#45;&gt;\\Famephp\\core\\contracts\\JsonSerializable -->
<g id="edge15" class="edge"><title>\\Famephp\\core\\buttons\\ButtonList&#45;&gt;\\Famephp\\core\\contracts\\JsonSerializable</title>
<path fill="none" stroke="black" stroke-dasharray="1,5" d="M440.3,-1519.4C422.086,-1516.61 401.18,-1511.04 385,-1500 235.873,-1398.22 143.411,-1189.02 113.845,-1113.75"/>
<polygon fill="none" stroke="black" points="116.962,-1112.11 110.091,-1104.04 110.433,-1114.63 116.962,-1112.11"/>
</g>
<!-- \\Famephp\\core\\buttons\\Button&#45;&gt;\\Famephp\\core\\contracts\\JsonSerializable -->
<g id="edge17" class="edge"><title>\\Famephp\\core\\buttons\\Button&#45;&gt;\\Famephp\\core\\contracts\\JsonSerializable</title>
<path fill="none" stroke="black" stroke-dasharray="1,5" d="M256.603,-1215.85C225.513,-1189.48 167.753,-1140.5 132.752,-1110.81"/>
<polygon fill="none" stroke="black" points="134.689,-1107.86 124.799,-1104.06 130.161,-1113.2 134.689,-1107.86"/>
</g>
<!-- \\Famephp\\core\\buttons\\PostbackButton -->
<g id="node10" class="node"><title>\\Famephp\\core\\buttons\\PostbackButton</title>
<polygon fill="none" stroke="black" points="538,-1090 427,-1090 427,-1054 538,-1054 538,-1090"/>
<text text-anchor="middle" x="482.5" y="-1069.2" font-family="Courier,monospace" font-size="11.00">PostbackButton</text>
</g>
<!-- \\Famephp\\core\\buttons\\PostbackButton&#45;&gt;\\Famephp\\core\\buttons\\Button -->
<g id="edge20" class="edge"><title>\\Famephp\\core\\buttons\\PostbackButton&#45;&gt;\\Famephp\\core\\buttons\\Button</title>
<path fill="none" stroke="black" d="M426.787,-1080.87C412.387,-1084.88 397.421,-1090.66 385,-1099 343.671,-1126.75 311.44,-1176.05 294.117,-1206.78"/>
<polygon fill="none" stroke="black" points="290.978,-1205.22 289.226,-1215.67 297.112,-1208.6 290.978,-1205.22"/>
</g>
<!-- \\Famephp\\core\\templates\\ButtonTemplate -->
<g id="node12" class="node"><title>\\Famephp\\core\\templates\\ButtonTemplate</title>
<polygon fill="none" stroke="black" points="538,-1010 427,-1010 427,-974 538,-974 538,-1010"/>
<text text-anchor="middle" x="482.5" y="-989.2" font-family="Courier,monospace" font-size="11.00">ButtonTemplate</text>
</g>
<!-- \\Famephp\\core\\templates\\Template -->
<g id="node16" class="node"><title>\\Famephp\\core\\templates\\Template</title>
<polygon fill="none" stroke="black" points="321,-956 237,-956 237,-920 321,-920 321,-956"/>
<text text-anchor="start" x="245" y="-941.2" font-family="Courier,monospace" font-size="11.00">«abstract»</text>
<text text-anchor="start" x="251.5" y="-929.2" font-family="Courier,monospace" font-size="11.00">Template</text>
</g>
<!-- \\Famephp\\core\\templates\\ButtonTemplate&#45;&gt;\\Famephp\\core\\templates\\Template -->
<g id="edge2" class="edge"><title>\\Famephp\\core\\templates\\ButtonTemplate&#45;&gt;\\Famephp\\core\\templates\\Template</title>
<path fill="none" stroke="black" d="M426.971,-977.387C397.153,-969.396 360.438,-959.557 331.164,-951.711"/>
<polygon fill="none" stroke="black" points="331.708,-948.234 321.143,-949.026 329.896,-954.995 331.708,-948.234"/>
</g>
<!-- \\Famephp\\core\\templates\\OpenGraphTemplate -->
<g id="node13" class="node"><title>\\Famephp\\core\\templates\\OpenGraphTemplate</title>
<polygon fill="none" stroke="black" points="548,-956 417,-956 417,-920 548,-920 548,-956"/>
<text text-anchor="middle" x="482.5" y="-935.2" font-family="Courier,monospace" font-size="11.00">OpenGraphTemplate</text>
</g>
<!-- \\Famephp\\core\\templates\\OpenGraphTemplate&#45;&gt;\\Famephp\\core\\templates\\Template -->
<g id="edge3" class="edge"><title>\\Famephp\\core\\templates\\OpenGraphTemplate&#45;&gt;\\Famephp\\core\\templates\\Template</title>
<path fill="none" stroke="black" d="M416.913,-938C389.17,-938 357.208,-938 331.147,-938"/>
<polygon fill="none" stroke="black" points="331.104,-934.5 321.104,-938 331.104,-941.5 331.104,-934.5"/>
</g>
<!-- \\Famephp\\core\\templates\\ListTemplate -->
<g id="node14" class="node"><title>\\Famephp\\core\\templates\\ListTemplate</title>
<polygon fill="none" stroke="black" points="742,-902 644,-902 644,-866 742,-866 742,-902"/>
<text text-anchor="middle" x="693" y="-881.2" font-family="Courier,monospace" font-size="11.00">ListTemplate</text>
</g>
<!-- \\Famephp\\core\\templates\\GenericTemplate -->
<g id="node15" class="node"><title>\\Famephp\\core\\templates\\GenericTemplate</title>
<polygon fill="none" stroke="black" points="541.5,-902 423.5,-902 423.5,-866 541.5,-866 541.5,-902"/>
<text text-anchor="middle" x="482.5" y="-881.2" font-family="Courier,monospace" font-size="11.00">GenericTemplate</text>
</g>
<!-- \\Famephp\\core\\templates\\ListTemplate&#45;&gt;\\Famephp\\core\\templates\\GenericTemplate -->
<g id="edge6" class="edge"><title>\\Famephp\\core\\templates\\ListTemplate&#45;&gt;\\Famephp\\core\\templates\\GenericTemplate</title>
<path fill="none" stroke="black" d="M643.904,-884C616.568,-884 581.888,-884 551.774,-884"/>
<polygon fill="none" stroke="black" points="551.754,-880.5 541.754,-884 551.754,-887.5 551.754,-880.5"/>
</g>
<!-- \\Famephp\\core\\templates\\GenericTemplate&#45;&gt;\\Famephp\\core\\templates\\Template -->
<g id="edge9" class="edge"><title>\\Famephp\\core\\templates\\GenericTemplate&#45;&gt;\\Famephp\\core\\templates\\Template</title>
<path fill="none" stroke="black" d="M423.488,-899.547C394.16,-907.406 358.9,-916.856 330.673,-924.42"/>
<polygon fill="none" stroke="black" points="329.756,-921.042 321.003,-927.012 331.568,-927.804 329.756,-921.042"/>
</g>
<!-- \\Famephp\\core\\templates\\Template&#45;&gt;\\Famephp\\core\\contracts\\JsonSerializable -->
<g id="edge16" class="edge"><title>\\Famephp\\core\\templates\\Template&#45;&gt;\\Famephp\\core\\contracts\\JsonSerializable</title>
<path fill="none" stroke="black" stroke-dasharray="1,5" d="M256.603,-956.148C225.513,-982.516 167.753,-1031.5 132.752,-1061.19"/>
<polygon fill="none" stroke="black" points="130.161,-1058.8 124.799,-1067.94 134.689,-1064.14 130.161,-1058.8"/>
</g>
<!-- \\Famephp\\core\\templates\\MediaTemplate -->
<g id="node17" class="node"><title>\\Famephp\\core\\templates\\MediaTemplate</title>
<polygon fill="none" stroke="black" points="534.5,-848 430.5,-848 430.5,-812 534.5,-812 534.5,-848"/>
<text text-anchor="middle" x="482.5" y="-827.2" font-family="Courier,monospace" font-size="11.00">MediaTemplate</text>
</g>
<!-- \\Famephp\\core\\templates\\MediaTemplate&#45;&gt;\\Famephp\\core\\templates\\Template -->
<g id="edge21" class="edge"><title>\\Famephp\\core\\templates\\MediaTemplate&#45;&gt;\\Famephp\\core\\templates\\Template</title>
<path fill="none" stroke="black" d="M430.049,-840.48C415.077,-844.558 398.995,-849.98 385,-857 355.751,-871.672 326.613,-895.021 306.48,-912.889"/>
<polygon fill="none" stroke="black" points="304.034,-910.381 298.959,-919.681 308.726,-915.576 304.034,-910.381"/>
</g>
<!-- \\Famephp\\core\\attachments\\Text -->
<g id="node18" class="node"><title>\\Famephp\\core\\attachments\\Text</title>
<polygon fill="none" stroke="black" points="720,-768 666,-768 666,-732 720,-732 720,-768"/>
<text text-anchor="middle" x="693" y="-747.2" font-family="Courier,monospace" font-size="11.00">Text</text>
</g>
<!-- \\Famephp\\core\\attachments\\Attachment -->
<g id="node23" class="node"><title>\\Famephp\\core\\attachments\\Attachment</title>
<polygon fill="none" stroke="black" points="524.5,-660 440.5,-660 440.5,-624 524.5,-624 524.5,-660"/>
<text text-anchor="start" x="448.5" y="-645.2" font-family="Courier,monospace" font-size="11.00">«abstract»</text>
<text text-anchor="start" x="448.5" y="-633.2" font-family="Courier,monospace" font-size="11.00">Attachment</text>
</g>
<!-- \\Famephp\\core\\attachments\\Text&#45;&gt;\\Famephp\\core\\attachments\\Attachment -->
<g id="edge4" class="edge"><title>\\Famephp\\core\\attachments\\Text&#45;&gt;\\Famephp\\core\\attachments\\Attachment</title>
<path fill="none" stroke="black" d="M665.968,-737.708C656.493,-733.166 645.725,-727.925 636,-723 598.432,-703.975 556.177,-681.441 525.69,-664.977"/>
<polygon fill="none" stroke="black" points="527.085,-661.752 516.624,-660.073 523.754,-667.909 527.085,-661.752"/>
</g>
<!-- \\Famephp\\core\\attachments\\File -->
<g id="node19" class="node"><title>\\Famephp\\core\\attachments\\File</title>
<polygon fill="none" stroke="black" points="720,-714 666,-714 666,-678 720,-678 720,-714"/>
<text text-anchor="middle" x="693" y="-693.2" font-family="Courier,monospace" font-size="11.00">File</text>
</g>
<!-- \\Famephp\\core\\attachments\\File&#45;&gt;\\Famephp\\core\\attachments\\Attachment -->
<g id="edge7" class="edge"><title>\\Famephp\\core\\attachments\\File&#45;&gt;\\Famephp\\core\\attachments\\Attachment</title>
<path fill="none" stroke="black" d="M665.593,-689.161C632.794,-680.666 576.111,-665.985 534.678,-655.255"/>
<polygon fill="none" stroke="black" points="535.321,-651.806 524.763,-652.687 533.566,-658.582 535.321,-651.806"/>
</g>
<!-- \\Famephp\\core\\attachments\\Image -->
<g id="node20" class="node"><title>\\Famephp\\core\\attachments\\Image</title>
<polygon fill="none" stroke="black" points="720,-660 666,-660 666,-624 720,-624 720,-660"/>
<text text-anchor="middle" x="693" y="-639.2" font-family="Courier,monospace" font-size="11.00">Image</text>
</g>
<!-- \\Famephp\\core\\attachments\\Image&#45;&gt;\\Famephp\\core\\attachments\\Attachment -->
<g id="edge8" class="edge"><title>\\Famephp\\core\\attachments\\Image&#45;&gt;\\Famephp\\core\\attachments\\Attachment</title>
<path fill="none" stroke="black" d="M665.593,-642C632.863,-642 576.35,-642 534.941,-642"/>
<polygon fill="none" stroke="black" points="534.763,-638.5 524.763,-642 534.763,-645.5 534.763,-638.5"/>
</g>
<!-- \\Famephp\\core\\attachments\\Video -->
<g id="node21" class="node"><title>\\Famephp\\core\\attachments\\Video</title>
<polygon fill="none" stroke="black" points="720,-606 666,-606 666,-570 720,-570 720,-606"/>
<text text-anchor="middle" x="693" y="-585.2" font-family="Courier,monospace" font-size="11.00">Video</text>
</g>
<!-- \\Famephp\\core\\attachments\\Video&#45;&gt;\\Famephp\\core\\attachments\\Attachment -->
<g id="edge12" class="edge"><title>\\Famephp\\core\\attachments\\Video&#45;&gt;\\Famephp\\core\\attachments\\Attachment</title>
<path fill="none" stroke="black" d="M665.593,-594.839C632.794,-603.334 576.111,-618.015 534.678,-628.745"/>
<polygon fill="none" stroke="black" points="533.566,-625.418 524.763,-631.313 535.321,-632.194 533.566,-625.418"/>
</g>
<!-- \\Famephp\\core\\attachments\\Audio -->
<g id="node22" class="node"><title>\\Famephp\\core\\attachments\\Audio</title>
<polygon fill="none" stroke="black" points="720,-552 666,-552 666,-516 720,-516 720,-552"/>
<text text-anchor="middle" x="693" y="-531.2" font-family="Courier,monospace" font-size="11.00">Audio</text>
</g>
<!-- \\Famephp\\core\\attachments\\Audio&#45;&gt;\\Famephp\\core\\attachments\\Attachment -->
<g id="edge14" class="edge"><title>\\Famephp\\core\\attachments\\Audio&#45;&gt;\\Famephp\\core\\attachments\\Attachment</title>
<path fill="none" stroke="black" d="M665.968,-546.292C656.493,-550.834 645.725,-556.075 636,-561 598.432,-580.025 556.177,-602.559 525.69,-619.023"/>
<polygon fill="none" stroke="black" points="523.754,-616.091 516.624,-623.927 527.085,-622.248 523.754,-616.091"/>
</g>
<!-- \\Famephp\\core\\visuals\\QuickReply -->
<g id="node24" class="node"><title>\\Famephp\\core\\visuals\\QuickReply</title>
<polygon fill="none" stroke="black" points="321,-768 237,-768 237,-732 321,-732 321,-768"/>
<text text-anchor="middle" x="279" y="-747.2" font-family="Courier,monospace" font-size="11.00">QuickReply</text>
</g>
<!-- \\Famephp\\core\\visuals\\QuickReply&#45;&gt;\\Famephp\\core\\contracts\\JsonSerializable -->
<g id="edge10" class="edge"><title>\\Famephp\\core\\visuals\\QuickReply&#45;&gt;\\Famephp\\core\\contracts\\JsonSerializable</title>
<path fill="none" stroke="black" stroke-dasharray="1,5" d="M257.149,-768.025C247.696,-776.958 236.895,-788.32 229,-800 170.499,-886.546 128.972,-1004.81 112.003,-1058.03"/>
<polygon fill="none" stroke="black" points="108.599,-1057.19 108.939,-1067.78 115.277,-1059.29 108.599,-1057.19"/>
</g>
<!-- \\Famephp\\core\\Response -->
<g id="node25" class="node"><title>\\Famephp\\core\\Message</title>
<polygon fill="none" stroke="black" points="725,-498 661,-498 661,-462 725,-462 725,-498"/>
<text text-anchor="middle" x="693" y="-477.2" font-family="Courier,monospace" font-size="11.00">Message</text>
</g>
<!-- \\Famephp\\core\\User -->
<g id="node26" class="node"><title>\\Famephp\\core\\User</title>
<polygon fill="none" stroke="black" points="720,-444 666,-444 666,-408 720,-408 720,-444"/>
<text text-anchor="middle" x="693" y="-423.2" font-family="Courier,monospace" font-size="11.00">User</text>
</g>
<!-- \\Famephp\\core\\Asset -->
<g id="node27" class="node"><title>\\Famephp\\core\\Asset</title>
<polygon fill="none" stroke="black" points="720,-390 666,-390 666,-354 720,-354 720,-390"/>
<text text-anchor="middle" x="693" y="-369.2" font-family="Courier,monospace" font-size="11.00">Asset</text>
</g>
<!-- \\Famephp\\api\\ConfigReader -->
<g id="node28" class="node"><title>\\Famephp\\api\\ConfigReader</title>
<polygon fill="none" stroke="black" points="742,-310 644,-310 644,-274 742,-274 742,-310"/>
<text text-anchor="middle" x="693" y="-289.2" font-family="Courier,monospace" font-size="11.00">ConfigReader</text>
</g>
<!-- \\Famephp\\api\\WebHook -->
<g id="node29" class="node"><title>\\Famephp\\api\\WebHook</title>
<polygon fill="none" stroke="black" points="725,-256 661,-256 661,-220 725,-220 725,-256"/>
<text text-anchor="middle" x="693" y="-235.2" font-family="Courier,monospace" font-size="11.00">WebHook</text>
</g>
<!-- \\Famephp\\api\\GraphRequest -->
<g id="node30" class="node"><title>\\Famephp\\api\\GraphRequest</title>
<polygon fill="none" stroke="black" points="742,-202 644,-202 644,-166 742,-166 742,-202"/>
<text text-anchor="middle" x="693" y="-181.2" font-family="Courier,monospace" font-size="11.00">GraphRequest</text>
</g>
<!-- \\Famephp\\api\\Database -->
<g id="node31" class="node"><title>\\Famephp\\api\\Database</title>
<polygon fill="none" stroke="black" points="728.5,-148 657.5,-148 657.5,-112 728.5,-112 728.5,-148"/>
<text text-anchor="middle" x="693" y="-127.2" font-family="Courier,monospace" font-size="11.00">Database</text>
</g>
<!-- \\Famephp\\app\\Bot -->
<g id="node32" class="node"><title>\\Famephp\\app\\Bot</title>
<polygon fill="none" stroke="black" points="720,-68 666,-68 666,-32 720,-32 720,-68"/>
<text text-anchor="middle" x="693" y="-47.2" font-family="Courier,monospace" font-size="11.00">Bot</text>
</g>
</g>
</svg>
