<?xml version="1.0" encoding="UTF-8" standalone="no"?>
<!DOCTYPE svg PUBLIC "-//W3C//DTD SVG 1.1//EN"
 "http://www.w3.org/Graphics/SVG/1.1/DTD/svg11.dtd">
<!-- Generated by graphviz version 2.38.0 (20140413.2041)
 -->
<!-- Title: G Pages: 1 -->
<svg width="790pt" height="1586pt"
 viewBox="0.00 0.00 790.00 1586.00" xmlns="http://www.w3.org/2000/svg" xmlns:xlink="http://www.w3.org/1999/xlink">
<g id="graph0" class="graph" transform="scale(1 1) rotate(0) translate(4 1582)">
<title>G</title>
<polygon fill="white" stroke="none" points="-4,4 -4,-1582 786,-1582 786,4 -4,4"/>
<g id="clust1" class="cluster"><title>cluster_Global</title>
<path fill="none" stroke="gray" d="M20,-8C20,-8 762,-8 762,-8 768,-8 774,-14 774,-20 774,-20 774,-1558 774,-1558 774,-1564 768,-1570 762,-1570 762,-1570 20,-1570 20,-1570 14,-1570 8,-1564 8,-1558 8,-1558 8,-20 8,-20 8,-14 14,-8 20,-8"/>
<text text-anchor="middle" x="391" y="-1557.2" font-family="Times New Roman,serif" font-size="11.00" fill="gray">Global</text>
</g>
<g id="clust2" class="cluster"><title>cluster_\Famephp</title>
<path fill="none" stroke="gray" d="M28,-16C28,-16 754,-16 754,-16 760,-16 766,-22 766,-28 766,-28 766,-1530 766,-1530 766,-1536 760,-1542 754,-1542 754,-1542 28,-1542 28,-1542 22,-1542 16,-1536 16,-1530 16,-1530 16,-28 16,-28 16,-22 22,-16 28,-16"/>
<text text-anchor="middle" x="391" y="-1529.2" font-family="Times New Roman,serif" font-size="11.00" fill="gray">Famephp</text>
</g>
<g id="clust3" class="cluster"><title>cluster_\Famephp\core</title>
<path fill="none" stroke="gray" d="M36,-266C36,-266 746,-266 746,-266 752,-266 758,-272 758,-278 758,-278 758,-1502 758,-1502 758,-1508 752,-1514 746,-1514 746,-1514 36,-1514 36,-1514 30,-1514 24,-1508 24,-1502 24,-1502 24,-278 24,-278 24,-272 30,-266 36,-266"/>
<text text-anchor="middle" x="391" y="-1501.2" font-family="Times New Roman,serif" font-size="11.00" fill="gray">core</text>
</g>
<g id="clust4" class="cluster"><title>cluster_\Famephp\core\buttons</title>
<path fill="none" stroke="gray" d="M241,-964C241,-964 576,-964 576,-964 582,-964 588,-970 588,-976 588,-976 588,-1474 588,-1474 588,-1480 582,-1486 576,-1486 576,-1486 241,-1486 241,-1486 235,-1486 229,-1480 229,-1474 229,-1474 229,-976 229,-976 229,-970 235,-964 241,-964"/>
<text text-anchor="middle" x="408.5" y="-1473.2" font-family="Times New Roman,serif" font-size="11.00" fill="gray">buttons</text>
</g>
<g id="clust5" class="cluster"><title>cluster_\Famephp\core\buttons\QuickReplies</title>
<path fill="none" stroke="gray" d="M397,-1180C397,-1180 568,-1180 568,-1180 574,-1180 580,-1186 580,-1192 580,-1192 580,-1402 580,-1402 580,-1408 574,-1414 568,-1414 568,-1414 397,-1414 397,-1414 391,-1414 385,-1408 385,-1402 385,-1402 385,-1192 385,-1192 385,-1186 391,-1180 397,-1180"/>
<text text-anchor="middle" x="482.5" y="-1401.2" font-family="Times New Roman,serif" font-size="11.00" fill="gray">QuickReplies</text>
</g>
<g id="clust6" class="cluster"><title>cluster_\Famephp\core\contracts</title>
<path fill="none" stroke="gray" d="M44,-830C44,-830 161,-830 161,-830 167,-830 173,-836 173,-842 173,-842 173,-890 173,-890 173,-896 167,-902 161,-902 161,-902 44,-902 44,-902 38,-902 32,-896 32,-890 32,-890 32,-842 32,-842 32,-836 38,-830 44,-830"/>
<text text-anchor="middle" x="102.5" y="-889.2" font-family="Times New Roman,serif" font-size="11.00" fill="gray">contracts</text>
</g>
<g id="clust8" class="cluster"><title>cluster_\Famephp\core\attachments</title>
<path fill="none" stroke="gray" d="M444.5,-668C444.5,-668 716,-668 716,-668 722,-668 728,-674 728,-680 728,-680 728,-944 728,-944 728,-950 722,-956 716,-956 716,-956 444.5,-956 444.5,-956 438.5,-956 432.5,-950 432.5,-944 432.5,-944 432.5,-680 432.5,-680 432.5,-674 438.5,-668 444.5,-668"/>
<text text-anchor="middle" x="580.25" y="-943.2" font-family="Times New Roman,serif" font-size="11.00" fill="gray">attachments</text>
</g>
<g id="clust7" class="cluster"><title>cluster_\Famephp\core\templates</title>
<path fill="none" stroke="gray" d="M241,-426C241,-426 738,-426 738,-426 744,-426 750,-432 750,-438 750,-438 750,-648 750,-648 750,-654 744,-660 738,-660 738,-660 241,-660 241,-660 235,-660 229,-654 229,-648 229,-648 229,-438 229,-438 229,-432 235,-426 241,-426"/>
<text text-anchor="middle" x="489.5" y="-647.2" font-family="Times New Roman,serif" font-size="11.00" fill="gray">templates</text>
</g>
<g id="clust9" class="cluster"><title>cluster_\Famephp\core\visuals</title>
<path fill="none" stroke="gray" d="M241,-346C241,-346 317,-346 317,-346 323,-346 329,-352 329,-358 329,-358 329,-406 329,-406 329,-412 323,-418 317,-418 317,-418 241,-418 241,-418 235,-418 229,-412 229,-406 229,-406 229,-358 229,-358 229,-352 235,-346 241,-346"/>
<text text-anchor="middle" x="279" y="-405.2" font-family="Times New Roman,serif" font-size="11.00" fill="gray">visuals</text>
</g>
<g id="clust10" class="cluster"><title>cluster_\Famephp\api</title>
<path fill="none" stroke="gray" d="M648,-24C648,-24 738,-24 738,-24 744,-24 750,-30 750,-36 750,-36 750,-246 750,-246 750,-252 744,-258 738,-258 738,-258 648,-258 648,-258 642,-258 636,-252 636,-246 636,-246 636,-36 636,-36 636,-30 642,-24 648,-24"/>
<text text-anchor="middle" x="693" y="-245.2" font-family="Times New Roman,serif" font-size="11.00" fill="gray">api</text>
</g>
<!-- \\Famephp\\core\\buttons\\QuickReplies\\PhoneQuickReplyButton -->
<g id="node1" class="node"><title>\\Famephp\\core\\buttons\\QuickReplies\\PhoneQuickReplyButton</title>
<polygon fill="none" stroke="black" points="561.5,-1386 403.5,-1386 403.5,-1350 561.5,-1350 561.5,-1386"/>
<text text-anchor="middle" x="482.5" y="-1365.2" font-family="Courier,monospace" font-size="11.00">PhoneQuickReplyButton</text>
</g>
<!-- \\Famephp\\core\\buttons\\Button -->
<g id="node9" class="node"><title>\\Famephp\\core\\buttons\\Button</title>
<polygon fill="none" stroke="black" points="321,-1170 237,-1170 237,-1134 321,-1134 321,-1170"/>
<text text-anchor="start" x="245" y="-1155.2" font-family="Courier,monospace" font-size="11.00">«abstract»</text>
<text text-anchor="start" x="258.5" y="-1143.2" font-family="Courier,monospace" font-size="11.00">Button</text>
</g>
<!-- \\Famephp\\core\\buttons\\QuickReplies\\PhoneQuickReplyButton&#45;&gt;\\Famephp\\core\\buttons\\Button -->
<g id="edge13" class="edge"><title>\\Famephp\\core\\buttons\\QuickReplies\\PhoneQuickReplyButton&#45;&gt;\\Famephp\\core\\buttons\\Button</title>
<path fill="none" stroke="black" d="M403.479,-1352.21C396.879,-1349.12 390.598,-1345.42 385,-1341 331.494,-1298.76 301.061,-1221.33 287.892,-1179.9"/>
<polygon fill="none" stroke="black" points="291.191,-1178.72 284.912,-1170.19 284.498,-1180.78 291.191,-1178.72"/>
</g>
<!-- \\Famephp\\core\\buttons\\QuickReplies\\TextQuickReplyButton -->
<g id="node2" class="node"><title>\\Famephp\\core\\buttons\\QuickReplies\\TextQuickReplyButton</title>
<polygon fill="none" stroke="black" points="558.5,-1332 406.5,-1332 406.5,-1296 558.5,-1296 558.5,-1332"/>
<text text-anchor="middle" x="482.5" y="-1311.2" font-family="Courier,monospace" font-size="11.00">TextQuickReplyButton</text>
</g>
<!-- \\Famephp\\core\\buttons\\QuickReplies\\TextQuickReplyButton&#45;&gt;\\Famephp\\core\\buttons\\Button -->
<g id="edge18" class="edge"><title>\\Famephp\\core\\buttons\\QuickReplies\\TextQuickReplyButton&#45;&gt;\\Famephp\\core\\buttons\\Button</title>
<path fill="none" stroke="black" d="M406.143,-1298.1C398.696,-1295.03 391.499,-1291.36 385,-1287 343.671,-1259.25 311.44,-1209.95 294.117,-1179.22"/>
<polygon fill="none" stroke="black" points="297.112,-1177.4 289.226,-1170.33 290.978,-1180.78 297.112,-1177.4"/>
</g>
<!-- \\Famephp\\core\\buttons\\QuickReplies\\EmailQuickReplyButton -->
<g id="node3" class="node"><title>\\Famephp\\core\\buttons\\QuickReplies\\EmailQuickReplyButton</title>
<polygon fill="none" stroke="black" points="561.5,-1278 403.5,-1278 403.5,-1242 561.5,-1242 561.5,-1278"/>
<text text-anchor="middle" x="482.5" y="-1257.2" font-family="Courier,monospace" font-size="11.00">EmailQuickReplyButton</text>
</g>
<!-- \\Famephp\\core\\buttons\\QuickReplies\\EmailQuickReplyButton&#45;&gt;\\Famephp\\core\\buttons\\Button -->
<g id="edge19" class="edge"><title>\\Famephp\\core\\buttons\\QuickReplies\\EmailQuickReplyButton&#45;&gt;\\Famephp\\core\\buttons\\Button</title>
<path fill="none" stroke="black" d="M406.14,-1242C398.849,-1239.34 391.687,-1236.35 385,-1233 355.751,-1218.33 326.613,-1194.98 306.48,-1177.11"/>
<polygon fill="none" stroke="black" points="308.726,-1174.42 298.959,-1170.32 304.034,-1179.62 308.726,-1174.42"/>
</g>
<!-- \\Famephp\\core\\buttons\\QuickReplies\\LocationQuickReplyButton -->
<g id="node4" class="node"><title>\\Famephp\\core\\buttons\\QuickReplies\\LocationQuickReplyButton</title>
<polygon fill="none" stroke="black" points="572,-1224 393,-1224 393,-1188 572,-1188 572,-1224"/>
<text text-anchor="middle" x="482.5" y="-1203.2" font-family="Courier,monospace" font-size="11.00">LocationQuickReplyButton</text>
</g>
<!-- \\Famephp\\core\\buttons\\QuickReplies\\LocationQuickReplyButton&#45;&gt;\\Famephp\\core\\buttons\\Button -->
<g id="edge22" class="edge"><title>\\Famephp\\core\\buttons\\QuickReplies\\LocationQuickReplyButton&#45;&gt;\\Famephp\\core\\buttons\\Button</title>
<path fill="none" stroke="black" d="M400.572,-1188C395.293,-1186.69 390.065,-1185.35 385,-1184 367.296,-1179.29 348.081,-1173.61 330.988,-1168.34"/>
<polygon fill="none" stroke="black" points="331.784,-1164.92 321.196,-1165.3 329.709,-1171.61 331.784,-1164.92"/>
</g>
<!-- \\Famephp\\core\\buttons\\ShareButton -->
<g id="node5" class="node"><title>\\Famephp\\core\\buttons\\ShareButton</title>
<polygon fill="none" stroke="black" points="528,-1170 437,-1170 437,-1134 528,-1134 528,-1170"/>
<text text-anchor="middle" x="482.5" y="-1149.2" font-family="Courier,monospace" font-size="11.00">ShareButton</text>
</g>
<!-- \\Famephp\\core\\buttons\\ShareButton&#45;&gt;\\Famephp\\core\\buttons\\Button -->
<g id="edge1" class="edge"><title>\\Famephp\\core\\buttons\\ShareButton&#45;&gt;\\Famephp\\core\\buttons\\Button</title>
<path fill="none" stroke="black" d="M436.781,-1152C405.603,-1152 363.93,-1152 331.385,-1152"/>
<polygon fill="none" stroke="black" points="331.164,-1148.5 321.164,-1152 331.164,-1155.5 331.164,-1148.5"/>
</g>
<!-- \\Famephp\\core\\buttons\\URLButton -->
<g id="node6" class="node"><title>\\Famephp\\core\\buttons\\URLButton</title>
<polygon fill="none" stroke="black" points="521,-1116 444,-1116 444,-1080 521,-1080 521,-1116"/>
<text text-anchor="middle" x="482.5" y="-1095.2" font-family="Courier,monospace" font-size="11.00">URLButton</text>
</g>
<!-- \\Famephp\\core\\buttons\\URLButton&#45;&gt;\\Famephp\\core\\buttons\\Button -->
<g id="edge5" class="edge"><title>\\Famephp\\core\\buttons\\URLButton&#45;&gt;\\Famephp\\core\\buttons\\Button</title>
<path fill="none" stroke="black" d="M443.599,-1108.16C411.849,-1116.67 366.232,-1128.89 331.23,-1138.27"/>
<polygon fill="none" stroke="black" points="329.951,-1134.99 321.198,-1140.96 331.763,-1141.75 329.951,-1134.99"/>
</g>
<!-- \\Famephp\\core\\buttons\\CallButton -->
<g id="node7" class="node"><title>\\Famephp\\core\\buttons\\CallButton</title>
<polygon fill="none" stroke="black" points="524.5,-1062 440.5,-1062 440.5,-1026 524.5,-1026 524.5,-1062"/>
<text text-anchor="middle" x="482.5" y="-1041.2" font-family="Courier,monospace" font-size="11.00">CallButton</text>
</g>
<!-- \\Famephp\\core\\buttons\\CallButton&#45;&gt;\\Famephp\\core\\buttons\\Button -->
<g id="edge11" class="edge"><title>\\Famephp\\core\\buttons\\CallButton&#45;&gt;\\Famephp\\core\\buttons\\Button</title>
<path fill="none" stroke="black" d="M440.307,-1051.84C422.695,-1056.12 402.261,-1062.34 385,-1071 355.751,-1085.67 326.613,-1109.02 306.48,-1126.89"/>
<polygon fill="none" stroke="black" points="304.034,-1124.38 298.959,-1133.68 308.726,-1129.58 304.034,-1124.38"/>
</g>
<!-- \\Famephp\\core\\buttons\\ButtonList -->
<g id="node8" class="node"><title>\\Famephp\\core\\buttons\\ButtonList</title>
<polygon fill="none" stroke="black" points="524.5,-1458 440.5,-1458 440.5,-1422 524.5,-1422 524.5,-1458"/>
<text text-anchor="middle" x="482.5" y="-1437.2" font-family="Courier,monospace" font-size="11.00">ButtonList</text>
</g>
<!-- \\Famephp\\core\\contracts\\JsonSerializable -->
<g id="node11" class="node"><title>\\Famephp\\core\\contracts\\JsonSerializable</title>
<polygon fill="none" stroke="black" points="165,-874 40,-874 40,-838 165,-838 165,-874"/>
<text text-anchor="middle" x="102.5" y="-853.2" font-family="Courier,monospace" font-size="11.00">JsonSerializable</text>
</g>
<!-- \\Famephp\\core\\buttons\\ButtonList&#45;&gt;\\Famephp\\core\\contracts\\JsonSerializable -->
<g id="edge15" class="edge"><title>\\Famephp\\core\\buttons\\ButtonList&#45;&gt;\\Famephp\\core\\contracts\\JsonSerializable</title>
<path fill="none" stroke="black" stroke-dasharray="1,5" d="M440.203,-1437.54C421.969,-1434.78 401.075,-1429.2 385,-1418 192.287,-1283.79 124.649,-978.066 107.986,-884.04"/>
<polygon fill="none" stroke="black" points="111.426,-883.396 106.282,-874.134 104.528,-884.583 111.426,-883.396"/>
</g>
<!-- \\Famephp\\core\\buttons\\Button&#45;&gt;\\Famephp\\core\\contracts\\JsonSerializable -->
<g id="edge17" class="edge"><title>\\Famephp\\core\\buttons\\Button&#45;&gt;\\Famephp\\core\\contracts\\JsonSerializable</title>
<path fill="none" stroke="black" stroke-dasharray="1,5" d="M267.347,-1133.93C237.776,-1083.77 154.551,-942.597 119.442,-883.041"/>
<polygon fill="none" stroke="black" points="122.329,-881.047 114.235,-874.21 116.299,-884.602 122.329,-881.047"/>
</g>
<!-- \\Famephp\\core\\buttons\\PostbackButton -->
<g id="node10" class="node"><title>\\Famephp\\core\\buttons\\PostbackButton</title>
<polygon fill="none" stroke="black" points="538,-1008 427,-1008 427,-972 538,-972 538,-1008"/>
<text text-anchor="middle" x="482.5" y="-987.2" font-family="Courier,monospace" font-size="11.00">PostbackButton</text>
</g>
<!-- \\Famephp\\core\\buttons\\PostbackButton&#45;&gt;\\Famephp\\core\\buttons\\Button -->
<g id="edge20" class="edge"><title>\\Famephp\\core\\buttons\\PostbackButton&#45;&gt;\\Famephp\\core\\buttons\\Button</title>
<path fill="none" stroke="black" d="M426.787,-998.873C412.387,-1002.88 397.421,-1008.66 385,-1017 343.671,-1044.75 311.44,-1094.05 294.117,-1124.78"/>
<polygon fill="none" stroke="black" points="290.978,-1123.22 289.226,-1133.67 297.112,-1126.6 290.978,-1123.22"/>
</g>
<!-- \\Famephp\\core\\templates\\ButtonTemplate -->
<g id="node12" class="node"><title>\\Famephp\\core\\templates\\ButtonTemplate</title>
<polygon fill="none" stroke="black" points="538,-632 427,-632 427,-596 538,-596 538,-632"/>
<text text-anchor="middle" x="482.5" y="-611.2" font-family="Courier,monospace" font-size="11.00">ButtonTemplate</text>
</g>
<!-- \\Famephp\\core\\templates\\Template -->
<g id="node16" class="node"><title>\\Famephp\\core\\templates\\Template</title>
<polygon fill="none" stroke="black" points="321,-578 237,-578 237,-542 321,-542 321,-578"/>
<text text-anchor="start" x="245" y="-563.2" font-family="Courier,monospace" font-size="11.00">«abstract»</text>
<text text-anchor="start" x="251.5" y="-551.2" font-family="Courier,monospace" font-size="11.00">Template</text>
</g>
<!-- \\Famephp\\core\\templates\\ButtonTemplate&#45;&gt;\\Famephp\\core\\templates\\Template -->
<g id="edge2" class="edge"><title>\\Famephp\\core\\templates\\ButtonTemplate&#45;&gt;\\Famephp\\core\\templates\\Template</title>
<path fill="none" stroke="black" d="M426.971,-599.387C397.153,-591.396 360.438,-581.557 331.164,-573.711"/>
<polygon fill="none" stroke="black" points="331.708,-570.234 321.143,-571.026 329.896,-576.995 331.708,-570.234"/>
</g>
<!-- \\Famephp\\core\\templates\\OpenGraphTemplate -->
<g id="node13" class="node"><title>\\Famephp\\core\\templates\\OpenGraphTemplate</title>
<polygon fill="none" stroke="black" points="548,-578 417,-578 417,-542 548,-542 548,-578"/>
<text text-anchor="middle" x="482.5" y="-557.2" font-family="Courier,monospace" font-size="11.00">OpenGraphTemplate</text>
</g>
<!-- \\Famephp\\core\\templates\\OpenGraphTemplate&#45;&gt;\\Famephp\\core\\templates\\Template -->
<g id="edge3" class="edge"><title>\\Famephp\\core\\templates\\OpenGraphTemplate&#45;&gt;\\Famephp\\core\\templates\\Template</title>
<path fill="none" stroke="black" d="M416.913,-560C389.17,-560 357.208,-560 331.147,-560"/>
<polygon fill="none" stroke="black" points="331.104,-556.5 321.104,-560 331.104,-563.5 331.104,-556.5"/>
</g>
<!-- \\Famephp\\core\\templates\\ListTemplate -->
<g id="node14" class="node"><title>\\Famephp\\core\\templates\\ListTemplate</title>
<polygon fill="none" stroke="black" points="742,-524 644,-524 644,-488 742,-488 742,-524"/>
<text text-anchor="middle" x="693" y="-503.2" font-family="Courier,monospace" font-size="11.00">ListTemplate</text>
</g>
<!-- \\Famephp\\core\\templates\\GenericTemplate -->
<g id="node15" class="node"><title>\\Famephp\\core\\templates\\GenericTemplate</title>
<polygon fill="none" stroke="black" points="541.5,-524 423.5,-524 423.5,-488 541.5,-488 541.5,-524"/>
<text text-anchor="middle" x="482.5" y="-503.2" font-family="Courier,monospace" font-size="11.00">GenericTemplate</text>
</g>
<!-- \\Famephp\\core\\templates\\ListTemplate&#45;&gt;\\Famephp\\core\\templates\\GenericTemplate -->
<g id="edge6" class="edge"><title>\\Famephp\\core\\templates\\ListTemplate&#45;&gt;\\Famephp\\core\\templates\\GenericTemplate</title>
<path fill="none" stroke="black" d="M643.904,-506C616.568,-506 581.888,-506 551.774,-506"/>
<polygon fill="none" stroke="black" points="551.754,-502.5 541.754,-506 551.754,-509.5 551.754,-502.5"/>
</g>
<!-- \\Famephp\\core\\templates\\GenericTemplate&#45;&gt;\\Famephp\\core\\templates\\Template -->
<g id="edge9" class="edge"><title>\\Famephp\\core\\templates\\GenericTemplate&#45;&gt;\\Famephp\\core\\templates\\Template</title>
<path fill="none" stroke="black" d="M423.488,-521.547C394.16,-529.406 358.9,-538.856 330.673,-546.42"/>
<polygon fill="none" stroke="black" points="329.756,-543.042 321.003,-549.012 331.568,-549.804 329.756,-543.042"/>
</g>
<!-- \\Famephp\\core\\templates\\Template&#45;&gt;\\Famephp\\core\\contracts\\JsonSerializable -->
<g id="edge16" class="edge"><title>\\Famephp\\core\\templates\\Template&#45;&gt;\\Famephp\\core\\contracts\\JsonSerializable</title>
<path fill="none" stroke="black" stroke-dasharray="1,5" d="M267.347,-578.071C237.776,-628.231 154.551,-769.403 119.442,-828.959"/>
<polygon fill="none" stroke="black" points="116.299,-827.398 114.235,-837.79 122.329,-830.953 116.299,-827.398"/>
</g>
<!-- \\Famephp\\core\\templates\\MediaTemplate -->
<g id="node17" class="node"><title>\\Famephp\\core\\templates\\MediaTemplate</title>
<polygon fill="none" stroke="black" points="534.5,-470 430.5,-470 430.5,-434 534.5,-434 534.5,-470"/>
<text text-anchor="middle" x="482.5" y="-449.2" font-family="Courier,monospace" font-size="11.00">MediaTemplate</text>
</g>
<!-- \\Famephp\\core\\templates\\MediaTemplate&#45;&gt;\\Famephp\\core\\templates\\Template -->
<g id="edge21" class="edge"><title>\\Famephp\\core\\templates\\MediaTemplate&#45;&gt;\\Famephp\\core\\templates\\Template</title>
<path fill="none" stroke="black" d="M430.049,-462.48C415.077,-466.558 398.995,-471.98 385,-479 355.751,-493.672 326.613,-517.021 306.48,-534.889"/>
<polygon fill="none" stroke="black" points="304.034,-532.381 298.959,-541.681 308.726,-537.576 304.034,-532.381"/>
</g>
<!-- \\Famephp\\core\\attachments\\Text -->
<g id="node18" class="node"><title>\\Famephp\\core\\attachments\\Text</title>
<polygon fill="none" stroke="black" points="720,-928 666,-928 666,-892 720,-892 720,-928"/>
<text text-anchor="middle" x="693" y="-907.2" font-family="Courier,monospace" font-size="11.00">Text</text>
</g>
<!-- \\Famephp\\core\\attachments\\Attachment -->
<g id="node23" class="node"><title>\\Famephp\\core\\attachments\\Attachment</title>
<polygon fill="none" stroke="black" points="524.5,-820 440.5,-820 440.5,-784 524.5,-784 524.5,-820"/>
<text text-anchor="start" x="448.5" y="-805.2" font-family="Courier,monospace" font-size="11.00">«abstract»</text>
<text text-anchor="start" x="448.5" y="-793.2" font-family="Courier,monospace" font-size="11.00">Attachment</text>
</g>
<!-- \\Famephp\\core\\attachments\\Text&#45;&gt;\\Famephp\\core\\attachments\\Attachment -->
<g id="edge4" class="edge"><title>\\Famephp\\core\\attachments\\Text&#45;&gt;\\Famephp\\core\\attachments\\Attachment</title>
<path fill="none" stroke="black" d="M665.968,-897.708C656.493,-893.166 645.725,-887.925 636,-883 598.432,-863.975 556.177,-841.441 525.69,-824.977"/>
<polygon fill="none" stroke="black" points="527.085,-821.752 516.624,-820.073 523.754,-827.909 527.085,-821.752"/>
</g>
<!-- \\Famephp\\core\\attachments\\File -->
<g id="node19" class="node"><title>\\Famephp\\core\\attachments\\File</title>
<polygon fill="none" stroke="black" points="720,-874 666,-874 666,-838 720,-838 720,-874"/>
<text text-anchor="middle" x="693" y="-853.2" font-family="Courier,monospace" font-size="11.00">File</text>
</g>
<!-- \\Famephp\\core\\attachments\\File&#45;&gt;\\Famephp\\core\\attachments\\Attachment -->
<g id="edge7" class="edge"><title>\\Famephp\\core\\attachments\\File&#45;&gt;\\Famephp\\core\\attachments\\Attachment</title>
<path fill="none" stroke="black" d="M665.593,-849.161C632.794,-840.666 576.111,-825.985 534.678,-815.255"/>
<polygon fill="none" stroke="black" points="535.321,-811.806 524.763,-812.687 533.566,-818.582 535.321,-811.806"/>
</g>
<!-- \\Famephp\\core\\attachments\\Image -->
<g id="node20" class="node"><title>\\Famephp\\core\\attachments\\Image</title>
<polygon fill="none" stroke="black" points="720,-820 666,-820 666,-784 720,-784 720,-820"/>
<text text-anchor="middle" x="693" y="-799.2" font-family="Courier,monospace" font-size="11.00">Image</text>
</g>
<!-- \\Famephp\\core\\attachments\\Image&#45;&gt;\\Famephp\\core\\attachments\\Attachment -->
<g id="edge8" class="edge"><title>\\Famephp\\core\\attachments\\Image&#45;&gt;\\Famephp\\core\\attachments\\Attachment</title>
<path fill="none" stroke="black" d="M665.593,-802C632.863,-802 576.35,-802 534.941,-802"/>
<polygon fill="none" stroke="black" points="534.763,-798.5 524.763,-802 534.763,-805.5 534.763,-798.5"/>
</g>
<!-- \\Famephp\\core\\attachments\\Video -->
<g id="node21" class="node"><title>\\Famephp\\core\\attachments\\Video</title>
<polygon fill="none" stroke="black" points="720,-766 666,-766 666,-730 720,-730 720,-766"/>
<text text-anchor="middle" x="693" y="-745.2" font-family="Courier,monospace" font-size="11.00">Video</text>
</g>
<!-- \\Famephp\\core\\attachments\\Video&#45;&gt;\\Famephp\\core\\attachments\\Attachment -->
<g id="edge12" class="edge"><title>\\Famephp\\core\\attachments\\Video&#45;&gt;\\Famephp\\core\\attachments\\Attachment</title>
<path fill="none" stroke="black" d="M665.593,-754.839C632.794,-763.334 576.111,-778.015 534.678,-788.745"/>
<polygon fill="none" stroke="black" points="533.566,-785.418 524.763,-791.313 535.321,-792.194 533.566,-785.418"/>
</g>
<!-- \\Famephp\\core\\attachments\\Audio -->
<g id="node22" class="node"><title>\\Famephp\\core\\attachments\\Audio</title>
<polygon fill="none" stroke="black" points="720,-712 666,-712 666,-676 720,-676 720,-712"/>
<text text-anchor="middle" x="693" y="-691.2" font-family="Courier,monospace" font-size="11.00">Audio</text>
</g>
<!-- \\Famephp\\core\\attachments\\Audio&#45;&gt;\\Famephp\\core\\attachments\\Attachment -->
<g id="edge14" class="edge"><title>\\Famephp\\core\\attachments\\Audio&#45;&gt;\\Famephp\\core\\attachments\\Attachment</title>
<path fill="none" stroke="black" d="M665.968,-706.292C656.493,-710.834 645.725,-716.075 636,-721 598.432,-740.025 556.177,-762.559 525.69,-779.023"/>
<polygon fill="none" stroke="black" points="523.754,-776.091 516.624,-783.927 527.085,-782.248 523.754,-776.091"/>
</g>
<!-- \\Famephp\\core\\visuals\\QuickReply -->
<g id="node24" class="node"><title>\\Famephp\\core\\visuals\\QuickReply</title>
<polygon fill="none" stroke="black" points="321,-390 237,-390 237,-354 321,-354 321,-390"/>
<text text-anchor="middle" x="279" y="-369.2" font-family="Courier,monospace" font-size="11.00">QuickReply</text>
</g>
<!-- \\Famephp\\core\\visuals\\QuickReply&#45;&gt;\\Famephp\\core\\contracts\\JsonSerializable -->
<g id="edge10" class="edge"><title>\\Famephp\\core\\visuals\\QuickReply&#45;&gt;\\Famephp\\core\\contracts\\JsonSerializable</title>
<path fill="none" stroke="black" stroke-dasharray="1,5" d="M255.944,-390.04C246.466,-398.81 235.985,-410.034 229,-422 147.947,-560.846 116.232,-755.588 106.81,-827.699"/>
<polygon fill="none" stroke="black" points="103.313,-827.45 105.531,-837.811 110.258,-828.329 103.313,-827.45"/>
</g>
<!-- \\Famephp\\core\\Message -->
<g id="node25" class="node"><title>\\Famephp\\core\\Message</title>
<polygon fill="none" stroke="black" points="725,-418 661,-418 661,-382 725,-382 725,-418"/>
<text text-anchor="middle" x="693" y="-397.2" font-family="Courier,monospace" font-size="11.00">Message</text>
</g>
<!-- \\Famephp\\core\\User -->
<g id="node26" class="node"><title>\\Famephp\\core\\User</title>
<polygon fill="none" stroke="black" points="720,-364 666,-364 666,-328 720,-328 720,-364"/>
<text text-anchor="middle" x="693" y="-343.2" font-family="Courier,monospace" font-size="11.00">User</text>
</g>
<!-- \\Famephp\\core\\Asset -->
<g id="node27" class="node"><title>\\Famephp\\core\\Asset</title>
<polygon fill="none" stroke="black" points="720,-310 666,-310 666,-274 720,-274 720,-310"/>
<text text-anchor="middle" x="693" y="-289.2" font-family="Courier,monospace" font-size="11.00">Asset</text>
</g>
<!-- \\Famephp\\api\\ConfigReader -->
<g id="node28" class="node"><title>\\Famephp\\api\\ConfigReader</title>
<polygon fill="none" stroke="black" points="742,-230 644,-230 644,-194 742,-194 742,-230"/>
<text text-anchor="middle" x="693" y="-209.2" font-family="Courier,monospace" font-size="11.00">ConfigReader</text>
</g>
<!-- \\Famephp\\api\\WebHook -->
<g id="node29" class="node"><title>\\Famephp\\api\\WebHook</title>
<polygon fill="none" stroke="black" points="725,-176 661,-176 661,-140 725,-140 725,-176"/>
<text text-anchor="middle" x="693" y="-155.2" font-family="Courier,monospace" font-size="11.00">WebHook</text>
</g>
<!-- \\Famephp\\api\\GraphRequest -->
<g id="node30" class="node"><title>\\Famephp\\api\\GraphRequest</title>
<polygon fill="none" stroke="black" points="742,-122 644,-122 644,-86 742,-86 742,-122"/>
<text text-anchor="middle" x="693" y="-101.2" font-family="Courier,monospace" font-size="11.00">GraphRequest</text>
</g>
<!-- \\Famephp\\api\\Database -->
<g id="node31" class="node"><title>\\Famephp\\api\\Database</title>
<polygon fill="none" stroke="black" points="728.5,-68 657.5,-68 657.5,-32 728.5,-32 728.5,-68"/>
<text text-anchor="middle" x="693" y="-47.2" font-family="Courier,monospace" font-size="11.00">Database</text>
</g>
</g>
</svg>
