<?xml version="1.0" encoding="UTF-8" standalone="no"?>
<!DOCTYPE svg PUBLIC "-//W3C//DTD SVG 1.1//EN"
 "http://www.w3.org/Graphics/SVG/1.1/DTD/svg11.dtd">
<!-- Generated by graphviz version 2.38.0 (20140413.2041)
 -->
<!-- Title: G Pages: 1 -->
<svg width="790pt" height="1666pt"
 viewBox="0.00 0.00 790.00 1666.00" xmlns="http://www.w3.org/2000/svg" xmlns:xlink="http://www.w3.org/1999/xlink">
<g id="graph0" class="graph" transform="scale(1 1) rotate(0) translate(4 1662)">
<title>G</title>
<polygon fill="white" stroke="none" points="-4,4 -4,-1662 786,-1662 786,4 -4,4"/>
<g id="clust1" class="cluster"><title>cluster_Global</title>
<path fill="none" stroke="gray" d="M20,-8C20,-8 762,-8 762,-8 768,-8 774,-14 774,-20 774,-20 774,-1638 774,-1638 774,-1644 768,-1650 762,-1650 762,-1650 20,-1650 20,-1650 14,-1650 8,-1644 8,-1638 8,-1638 8,-20 8,-20 8,-14 14,-8 20,-8"/>
<text text-anchor="middle" x="391" y="-1637.2" font-family="Times New Roman,serif" font-size="11.00" fill="gray">Global</text>
</g>
<g id="clust2" class="cluster"><title>cluster_\Famephp</title>
<path fill="none" stroke="gray" d="M28,-16C28,-16 754,-16 754,-16 760,-16 766,-22 766,-28 766,-28 766,-1610 766,-1610 766,-1616 760,-1622 754,-1622 754,-1622 28,-1622 28,-1622 22,-1622 16,-1616 16,-1610 16,-1610 16,-28 16,-28 16,-22 22,-16 28,-16"/>
<text text-anchor="middle" x="391" y="-1609.2" font-family="Times New Roman,serif" font-size="11.00" fill="gray">Famephp</text>
</g>
<g id="clust3" class="cluster"><title>cluster_\Famephp\api</title>
<path fill="none" stroke="gray" d="M648,-1360C648,-1360 738,-1360 738,-1360 744,-1360 750,-1366 750,-1372 750,-1372 750,-1582 750,-1582 750,-1588 744,-1594 738,-1594 738,-1594 648,-1594 648,-1594 642,-1594 636,-1588 636,-1582 636,-1582 636,-1372 636,-1372 636,-1366 642,-1360 648,-1360"/>
<text text-anchor="middle" x="693" y="-1581.2" font-family="Times New Roman,serif" font-size="11.00" fill="gray">api</text>
</g>
<g id="clust4" class="cluster"><title>cluster_\Famephp\core</title>
<path fill="none" stroke="gray" d="M36,-24C36,-24 746,-24 746,-24 752,-24 758,-30 758,-36 758,-36 758,-1340 758,-1340 758,-1346 752,-1352 746,-1352 746,-1352 36,-1352 36,-1352 30,-1352 24,-1346 24,-1340 24,-1340 24,-36 24,-36 24,-30 30,-24 36,-24"/>
<text text-anchor="middle" x="391" y="-1339.2" font-family="Times New Roman,serif" font-size="11.00" fill="gray">core</text>
</g>
<g id="clust5" class="cluster"><title>cluster_\Famephp\core\attachments</title>
<path fill="none" stroke="gray" d="M444.5,-1036C444.5,-1036 716,-1036 716,-1036 722,-1036 728,-1042 728,-1048 728,-1048 728,-1312 728,-1312 728,-1318 722,-1324 716,-1324 716,-1324 444.5,-1324 444.5,-1324 438.5,-1324 432.5,-1318 432.5,-1312 432.5,-1312 432.5,-1048 432.5,-1048 432.5,-1042 438.5,-1036 444.5,-1036"/>
<text text-anchor="middle" x="580.25" y="-1311.2" font-family="Times New Roman,serif" font-size="11.00" fill="gray">attachments</text>
</g>
<g id="clust6" class="cluster"><title>cluster_\Famephp\core\buttons</title>
<path fill="none" stroke="gray" d="M241,-506C241,-506 576,-506 576,-506 582,-506 588,-512 588,-518 588,-518 588,-1016 588,-1016 588,-1022 582,-1028 576,-1028 576,-1028 241,-1028 241,-1028 235,-1028 229,-1022 229,-1016 229,-1016 229,-518 229,-518 229,-512 235,-506 241,-506"/>
<text text-anchor="middle" x="408.5" y="-1015.2" font-family="Times New Roman,serif" font-size="11.00" fill="gray">buttons</text>
</g>
<g id="clust7" class="cluster"><title>cluster_\Famephp\core\buttons\QuickReplies</title>
<path fill="none" stroke="gray" d="M397,-722C397,-722 568,-722 568,-722 574,-722 580,-728 580,-734 580,-734 580,-944 580,-944 580,-950 574,-956 568,-956 568,-956 397,-956 397,-956 391,-956 385,-950 385,-944 385,-944 385,-734 385,-734 385,-728 391,-722 397,-722"/>
<text text-anchor="middle" x="482.5" y="-943.2" font-family="Times New Roman,serif" font-size="11.00" fill="gray">QuickReplies</text>
</g>
<g id="clust10" class="cluster"><title>cluster_\Famephp\core\visuals</title>
<path fill="none" stroke="gray" d="M241,-426C241,-426 317,-426 317,-426 323,-426 329,-432 329,-438 329,-438 329,-486 329,-486 329,-492 323,-498 317,-498 317,-498 241,-498 241,-498 235,-498 229,-492 229,-486 229,-486 229,-438 229,-438 229,-432 235,-426 241,-426"/>
<text text-anchor="middle" x="279" y="-485.2" font-family="Times New Roman,serif" font-size="11.00" fill="gray">visuals</text>
</g>
<g id="clust9" class="cluster"><title>cluster_\Famephp\core\templates</title>
<path fill="none" stroke="gray" d="M241,-184C241,-184 738,-184 738,-184 744,-184 750,-190 750,-196 750,-196 750,-406 750,-406 750,-412 744,-418 738,-418 738,-418 241,-418 241,-418 235,-418 229,-412 229,-406 229,-406 229,-196 229,-196 229,-190 235,-184 241,-184"/>
<text text-anchor="middle" x="489.5" y="-405.2" font-family="Times New Roman,serif" font-size="11.00" fill="gray">templates</text>
</g>
<g id="clust8" class="cluster"><title>cluster_\Famephp\core\contracts</title>
<path fill="none" stroke="gray" d="M44,-547C44,-547 161,-547 161,-547 167,-547 173,-553 173,-559 173,-559 173,-607 173,-607 173,-613 167,-619 161,-619 161,-619 44,-619 44,-619 38,-619 32,-613 32,-607 32,-607 32,-559 32,-559 32,-553 38,-547 44,-547"/>
<text text-anchor="middle" x="102.5" y="-606.2" font-family="Times New Roman,serif" font-size="11.00" fill="gray">contracts</text>
</g>
<!-- \\Famephp\\api\\ConfigReader -->
<g id="node1" class="node"><title>\\Famephp\\api\\ConfigReader</title>
<polygon fill="none" stroke="black" points="742,-1566 644,-1566 644,-1530 742,-1530 742,-1566"/>
<text text-anchor="middle" x="693" y="-1545.2" font-family="Courier,monospace" font-size="11.00">ConfigReader</text>
</g>
<!-- \\Famephp\\api\\Database -->
<g id="node2" class="node"><title>\\Famephp\\api\\Database</title>
<polygon fill="none" stroke="black" points="728.5,-1512 657.5,-1512 657.5,-1476 728.5,-1476 728.5,-1512"/>
<text text-anchor="middle" x="693" y="-1491.2" font-family="Courier,monospace" font-size="11.00">Database</text>
</g>
<!-- \\Famephp\\api\\GraphRequest -->
<g id="node3" class="node"><title>\\Famephp\\api\\GraphRequest</title>
<polygon fill="none" stroke="black" points="742,-1458 644,-1458 644,-1422 742,-1422 742,-1458"/>
<text text-anchor="middle" x="693" y="-1437.2" font-family="Courier,monospace" font-size="11.00">GraphRequest</text>
</g>
<!-- \\Famephp\\api\\WebHook -->
<g id="node4" class="node"><title>\\Famephp\\api\\WebHook</title>
<polygon fill="none" stroke="black" points="725,-1404 661,-1404 661,-1368 725,-1368 725,-1404"/>
<text text-anchor="middle" x="693" y="-1383.2" font-family="Courier,monospace" font-size="11.00">WebHook</text>
</g>
<!-- \\Famephp\\core\\attachments\\Attachment -->
<g id="node5" class="node"><title>\\Famephp\\core\\attachments\\Attachment</title>
<polygon fill="none" stroke="black" points="524.5,-1188 440.5,-1188 440.5,-1152 524.5,-1152 524.5,-1188"/>
<text text-anchor="start" x="448.5" y="-1173.2" font-family="Courier,monospace" font-size="11.00">«abstract»</text>
<text text-anchor="start" x="448.5" y="-1161.2" font-family="Courier,monospace" font-size="11.00">Attachment</text>
</g>
<!-- \\Famephp\\core\\attachments\\Audio -->
<g id="node6" class="node"><title>\\Famephp\\core\\attachments\\Audio</title>
<polygon fill="none" stroke="black" points="720,-1296 666,-1296 666,-1260 720,-1260 720,-1296"/>
<text text-anchor="middle" x="693" y="-1275.2" font-family="Courier,monospace" font-size="11.00">Audio</text>
</g>
<!-- \\Famephp\\core\\attachments\\Audio&#45;&gt;\\Famephp\\core\\attachments\\Attachment -->
<g id="edge1" class="edge"><title>\\Famephp\\core\\attachments\\Audio&#45;&gt;\\Famephp\\core\\attachments\\Attachment</title>
<path fill="none" stroke="black" d="M665.968,-1265.71C656.493,-1261.17 645.725,-1255.92 636,-1251 598.432,-1231.98 556.177,-1209.44 525.69,-1192.98"/>
<polygon fill="none" stroke="black" points="527.085,-1189.75 516.624,-1188.07 523.754,-1195.91 527.085,-1189.75"/>
</g>
<!-- \\Famephp\\core\\attachments\\File -->
<g id="node7" class="node"><title>\\Famephp\\core\\attachments\\File</title>
<polygon fill="none" stroke="black" points="720,-1242 666,-1242 666,-1206 720,-1206 720,-1242"/>
<text text-anchor="middle" x="693" y="-1221.2" font-family="Courier,monospace" font-size="11.00">File</text>
</g>
<!-- \\Famephp\\core\\attachments\\File&#45;&gt;\\Famephp\\core\\attachments\\Attachment -->
<g id="edge2" class="edge"><title>\\Famephp\\core\\attachments\\File&#45;&gt;\\Famephp\\core\\attachments\\Attachment</title>
<path fill="none" stroke="black" d="M665.593,-1217.16C632.794,-1208.67 576.111,-1193.99 534.678,-1183.25"/>
<polygon fill="none" stroke="black" points="535.321,-1179.81 524.763,-1180.69 533.566,-1186.58 535.321,-1179.81"/>
</g>
<!-- \\Famephp\\core\\attachments\\Image -->
<g id="node8" class="node"><title>\\Famephp\\core\\attachments\\Image</title>
<polygon fill="none" stroke="black" points="720,-1188 666,-1188 666,-1152 720,-1152 720,-1188"/>
<text text-anchor="middle" x="693" y="-1167.2" font-family="Courier,monospace" font-size="11.00">Image</text>
</g>
<!-- \\Famephp\\core\\attachments\\Image&#45;&gt;\\Famephp\\core\\attachments\\Attachment -->
<g id="edge3" class="edge"><title>\\Famephp\\core\\attachments\\Image&#45;&gt;\\Famephp\\core\\attachments\\Attachment</title>
<path fill="none" stroke="black" d="M665.593,-1170C632.863,-1170 576.35,-1170 534.941,-1170"/>
<polygon fill="none" stroke="black" points="534.763,-1166.5 524.763,-1170 534.763,-1173.5 534.763,-1166.5"/>
</g>
<!-- \\Famephp\\core\\attachments\\Text -->
<g id="node9" class="node"><title>\\Famephp\\core\\attachments\\Text</title>
<polygon fill="none" stroke="black" points="720,-1134 666,-1134 666,-1098 720,-1098 720,-1134"/>
<text text-anchor="middle" x="693" y="-1113.2" font-family="Courier,monospace" font-size="11.00">Text</text>
</g>
<!-- \\Famephp\\core\\attachments\\Text&#45;&gt;\\Famephp\\core\\attachments\\Attachment -->
<g id="edge4" class="edge"><title>\\Famephp\\core\\attachments\\Text&#45;&gt;\\Famephp\\core\\attachments\\Attachment</title>
<path fill="none" stroke="black" d="M665.593,-1122.84C632.794,-1131.33 576.111,-1146.01 534.678,-1156.75"/>
<polygon fill="none" stroke="black" points="533.566,-1153.42 524.763,-1159.31 535.321,-1160.19 533.566,-1153.42"/>
</g>
<!-- \\Famephp\\core\\attachments\\Video -->
<g id="node10" class="node"><title>\\Famephp\\core\\attachments\\Video</title>
<polygon fill="none" stroke="black" points="720,-1080 666,-1080 666,-1044 720,-1044 720,-1080"/>
<text text-anchor="middle" x="693" y="-1059.2" font-family="Courier,monospace" font-size="11.00">Video</text>
</g>
<!-- \\Famephp\\core\\attachments\\Video&#45;&gt;\\Famephp\\core\\attachments\\Attachment -->
<g id="edge5" class="edge"><title>\\Famephp\\core\\attachments\\Video&#45;&gt;\\Famephp\\core\\attachments\\Attachment</title>
<path fill="none" stroke="black" d="M665.968,-1074.29C656.493,-1078.83 645.725,-1084.08 636,-1089 598.432,-1108.02 556.177,-1130.56 525.69,-1147.02"/>
<polygon fill="none" stroke="black" points="523.754,-1144.09 516.624,-1151.93 527.085,-1150.25 523.754,-1144.09"/>
</g>
<!-- \\Famephp\\core\\buttons\\QuickReplies\\EmailQuickReplyButton -->
<g id="node11" class="node"><title>\\Famephp\\core\\buttons\\QuickReplies\\EmailQuickReplyButton</title>
<polygon fill="none" stroke="black" points="561.5,-928 403.5,-928 403.5,-892 561.5,-892 561.5,-928"/>
<text text-anchor="middle" x="482.5" y="-907.2" font-family="Courier,monospace" font-size="11.00">EmailQuickReplyButton</text>
</g>
<!-- \\Famephp\\core\\buttons\\Button -->
<g id="node15" class="node"><title>\\Famephp\\core\\buttons\\Button</title>
<polygon fill="none" stroke="black" points="321,-712 237,-712 237,-676 321,-676 321,-712"/>
<text text-anchor="start" x="245" y="-697.2" font-family="Courier,monospace" font-size="11.00">«abstract»</text>
<text text-anchor="start" x="258.5" y="-685.2" font-family="Courier,monospace" font-size="11.00">Button</text>
</g>
<!-- \\Famephp\\core\\buttons\\QuickReplies\\EmailQuickReplyButton&#45;&gt;\\Famephp\\core\\buttons\\Button -->
<g id="edge10" class="edge"><title>\\Famephp\\core\\buttons\\QuickReplies\\EmailQuickReplyButton&#45;&gt;\\Famephp\\core\\buttons\\Button</title>
<path fill="none" stroke="black" d="M403.479,-894.208C396.879,-891.116 390.598,-887.42 385,-883 331.494,-840.761 301.061,-763.335 287.892,-721.903"/>
<polygon fill="none" stroke="black" points="291.191,-720.722 284.912,-712.188 284.498,-722.775 291.191,-720.722"/>
</g>
<!-- \\Famephp\\core\\buttons\\QuickReplies\\LocationQuickReplyButton -->
<g id="node12" class="node"><title>\\Famephp\\core\\buttons\\QuickReplies\\LocationQuickReplyButton</title>
<polygon fill="none" stroke="black" points="572,-874 393,-874 393,-838 572,-838 572,-874"/>
<text text-anchor="middle" x="482.5" y="-853.2" font-family="Courier,monospace" font-size="11.00">LocationQuickReplyButton</text>
</g>
<!-- \\Famephp\\core\\buttons\\QuickReplies\\LocationQuickReplyButton&#45;&gt;\\Famephp\\core\\buttons\\Button -->
<g id="edge11" class="edge"><title>\\Famephp\\core\\buttons\\QuickReplies\\LocationQuickReplyButton&#45;&gt;\\Famephp\\core\\buttons\\Button</title>
<path fill="none" stroke="black" d="M401.22,-837.965C395.532,-835.365 390.055,-832.394 385,-829 343.671,-801.251 311.44,-751.946 294.117,-721.221"/>
<polygon fill="none" stroke="black" points="297.112,-719.403 289.226,-712.327 290.978,-722.776 297.112,-719.403"/>
</g>
<!-- \\Famephp\\core\\buttons\\QuickReplies\\PhoneQuickReplyButton -->
<g id="node13" class="node"><title>\\Famephp\\core\\buttons\\QuickReplies\\PhoneQuickReplyButton</title>
<polygon fill="none" stroke="black" points="561.5,-820 403.5,-820 403.5,-784 561.5,-784 561.5,-820"/>
<text text-anchor="middle" x="482.5" y="-799.2" font-family="Courier,monospace" font-size="11.00">PhoneQuickReplyButton</text>
</g>
<!-- \\Famephp\\core\\buttons\\QuickReplies\\PhoneQuickReplyButton&#45;&gt;\\Famephp\\core\\buttons\\Button -->
<g id="edge12" class="edge"><title>\\Famephp\\core\\buttons\\QuickReplies\\PhoneQuickReplyButton&#45;&gt;\\Famephp\\core\\buttons\\Button</title>
<path fill="none" stroke="black" d="M406.14,-783.995C398.849,-781.343 391.687,-778.354 385,-775 355.751,-760.328 326.613,-736.979 306.48,-719.111"/>
<polygon fill="none" stroke="black" points="308.726,-716.424 298.959,-712.319 304.034,-721.619 308.726,-716.424"/>
</g>
<!-- \\Famephp\\core\\buttons\\QuickReplies\\TextQuickReplyButton -->
<g id="node14" class="node"><title>\\Famephp\\core\\buttons\\QuickReplies\\TextQuickReplyButton</title>
<polygon fill="none" stroke="black" points="558.5,-766 406.5,-766 406.5,-730 558.5,-730 558.5,-766"/>
<text text-anchor="middle" x="482.5" y="-745.2" font-family="Courier,monospace" font-size="11.00">TextQuickReplyButton</text>
</g>
<!-- \\Famephp\\core\\buttons\\QuickReplies\\TextQuickReplyButton&#45;&gt;\\Famephp\\core\\buttons\\Button -->
<g id="edge13" class="edge"><title>\\Famephp\\core\\buttons\\QuickReplies\\TextQuickReplyButton&#45;&gt;\\Famephp\\core\\buttons\\Button</title>
<path fill="none" stroke="black" d="M406.3,-731.408C399.085,-729.65 391.891,-727.833 385,-726 367.296,-721.291 348.081,-715.606 330.988,-710.342"/>
<polygon fill="none" stroke="black" points="331.784,-706.924 321.196,-707.302 329.709,-713.61 331.784,-706.924"/>
</g>
<!-- \\Famephp\\core\\contracts\\JsonSerializable -->
<g id="node21" class="node"><title>\\Famephp\\core\\contracts\\JsonSerializable</title>
<polygon fill="none" stroke="black" points="165,-591 40,-591 40,-555 165,-555 165,-591"/>
<text text-anchor="middle" x="102.5" y="-570.2" font-family="Courier,monospace" font-size="11.00">JsonSerializable</text>
</g>
<!-- \\Famephp\\core\\buttons\\Button&#45;&gt;\\Famephp\\core\\contracts\\JsonSerializable -->
<g id="edge6" class="edge"><title>\\Famephp\\core\\buttons\\Button&#45;&gt;\\Famephp\\core\\contracts\\JsonSerializable</title>
<path fill="none" stroke="black" stroke-dasharray="1,5" d="M251.876,-675.885C221.59,-654.885 171.558,-620.192 138.072,-596.973"/>
<polygon fill="none" stroke="black" points="139.73,-593.863 129.518,-591.041 135.741,-599.615 139.73,-593.863"/>
</g>
<!-- \\Famephp\\core\\buttons\\ButtonList -->
<g id="node16" class="node"><title>\\Famephp\\core\\buttons\\ButtonList</title>
<polygon fill="none" stroke="black" points="524.5,-1000 440.5,-1000 440.5,-964 524.5,-964 524.5,-1000"/>
<text text-anchor="middle" x="482.5" y="-979.2" font-family="Courier,monospace" font-size="11.00">ButtonList</text>
</g>
<!-- \\Famephp\\core\\buttons\\ButtonList&#45;&gt;\\Famephp\\core\\contracts\\JsonSerializable -->
<g id="edge7" class="edge"><title>\\Famephp\\core\\buttons\\ButtonList&#45;&gt;\\Famephp\\core\\contracts\\JsonSerializable</title>
<path fill="none" stroke="black" stroke-dasharray="1,5" d="M440.46,-979.157C422.278,-976.327 401.353,-970.785 385,-960 241.92,-865.637 146.638,-672.044 115.033,-600.428"/>
<polygon fill="none" stroke="black" points="118.197,-598.928 110.998,-591.156 111.779,-601.722 118.197,-598.928"/>
</g>
<!-- \\Famephp\\core\\buttons\\CallButton -->
<g id="node17" class="node"><title>\\Famephp\\core\\buttons\\CallButton</title>
<polygon fill="none" stroke="black" points="524.5,-712 440.5,-712 440.5,-676 524.5,-676 524.5,-712"/>
<text text-anchor="middle" x="482.5" y="-691.2" font-family="Courier,monospace" font-size="11.00">CallButton</text>
</g>
<!-- \\Famephp\\core\\buttons\\CallButton&#45;&gt;\\Famephp\\core\\buttons\\Button -->
<g id="edge8" class="edge"><title>\\Famephp\\core\\buttons\\CallButton&#45;&gt;\\Famephp\\core\\buttons\\Button</title>
<path fill="none" stroke="black" d="M440.237,-694C408.725,-694 365.116,-694 331.347,-694"/>
<polygon fill="none" stroke="black" points="331.208,-690.5 321.208,-694 331.208,-697.5 331.208,-690.5"/>
</g>
<!-- \\Famephp\\core\\buttons\\PostbackButton -->
<g id="node18" class="node"><title>\\Famephp\\core\\buttons\\PostbackButton</title>
<polygon fill="none" stroke="black" points="538,-658 427,-658 427,-622 538,-622 538,-658"/>
<text text-anchor="middle" x="482.5" y="-637.2" font-family="Courier,monospace" font-size="11.00">PostbackButton</text>
</g>
<!-- \\Famephp\\core\\buttons\\PostbackButton&#45;&gt;\\Famephp\\core\\buttons\\Button -->
<g id="edge9" class="edge"><title>\\Famephp\\core\\buttons\\PostbackButton&#45;&gt;\\Famephp\\core\\buttons\\Button</title>
<path fill="none" stroke="black" d="M426.971,-654.613C397.153,-662.604 360.438,-672.443 331.164,-680.289"/>
<polygon fill="none" stroke="black" points="329.896,-677.005 321.143,-682.974 331.708,-683.766 329.896,-677.005"/>
</g>
<!-- \\Famephp\\core\\buttons\\ShareButton -->
<g id="node19" class="node"><title>\\Famephp\\core\\buttons\\ShareButton</title>
<polygon fill="none" stroke="black" points="528,-604 437,-604 437,-568 528,-568 528,-604"/>
<text text-anchor="middle" x="482.5" y="-583.2" font-family="Courier,monospace" font-size="11.00">ShareButton</text>
</g>
<!-- \\Famephp\\core\\buttons\\ShareButton&#45;&gt;\\Famephp\\core\\buttons\\Button -->
<g id="edge14" class="edge"><title>\\Famephp\\core\\buttons\\ShareButton&#45;&gt;\\Famephp\\core\\buttons\\Button</title>
<path fill="none" stroke="black" d="M436.943,-594.673C420.131,-598.911 401.172,-604.888 385,-613 355.751,-627.672 326.613,-651.021 306.48,-668.889"/>
<polygon fill="none" stroke="black" points="304.034,-666.381 298.959,-675.681 308.726,-671.576 304.034,-666.381"/>
</g>
<!-- \\Famephp\\core\\buttons\\URLButton -->
<g id="node20" class="node"><title>\\Famephp\\core\\buttons\\URLButton</title>
<polygon fill="none" stroke="black" points="521,-550 444,-550 444,-514 521,-514 521,-550"/>
<text text-anchor="middle" x="482.5" y="-529.2" font-family="Courier,monospace" font-size="11.00">URLButton</text>
</g>
<!-- \\Famephp\\core\\buttons\\URLButton&#45;&gt;\\Famephp\\core\\buttons\\Button -->
<g id="edge15" class="edge"><title>\\Famephp\\core\\buttons\\URLButton&#45;&gt;\\Famephp\\core\\buttons\\Button</title>
<path fill="none" stroke="black" d="M443.876,-536.817C424.991,-540.592 402.476,-547.266 385,-559 343.671,-586.749 311.44,-636.054 294.117,-666.779"/>
<polygon fill="none" stroke="black" points="290.978,-665.224 289.226,-675.673 297.112,-668.597 290.978,-665.224"/>
</g>
<!-- \\Famephp\\core\\templates\\ButtonTemplate -->
<g id="node22" class="node"><title>\\Famephp\\core\\templates\\ButtonTemplate</title>
<polygon fill="none" stroke="black" points="538,-390 427,-390 427,-354 538,-354 538,-390"/>
<text text-anchor="middle" x="482.5" y="-369.2" font-family="Courier,monospace" font-size="11.00">ButtonTemplate</text>
</g>
<!-- \\Famephp\\core\\templates\\Template -->
<g id="node27" class="node"><title>\\Famephp\\core\\templates\\Template</title>
<polygon fill="none" stroke="black" points="321,-336 237,-336 237,-300 321,-300 321,-336"/>
<text text-anchor="start" x="245" y="-321.2" font-family="Courier,monospace" font-size="11.00">«abstract»</text>
<text text-anchor="start" x="251.5" y="-309.2" font-family="Courier,monospace" font-size="11.00">Template</text>
</g>
<!-- \\Famephp\\core\\templates\\ButtonTemplate&#45;&gt;\\Famephp\\core\\templates\\Template -->
<g id="edge16" class="edge"><title>\\Famephp\\core\\templates\\ButtonTemplate&#45;&gt;\\Famephp\\core\\templates\\Template</title>
<path fill="none" stroke="black" d="M426.971,-357.387C397.153,-349.396 360.438,-339.557 331.164,-331.711"/>
<polygon fill="none" stroke="black" points="331.708,-328.234 321.143,-329.026 329.896,-334.995 331.708,-328.234"/>
</g>
<!-- \\Famephp\\core\\templates\\GenericTemplate -->
<g id="node23" class="node"><title>\\Famephp\\core\\templates\\GenericTemplate</title>
<polygon fill="none" stroke="black" points="541.5,-336 423.5,-336 423.5,-300 541.5,-300 541.5,-336"/>
<text text-anchor="middle" x="482.5" y="-315.2" font-family="Courier,monospace" font-size="11.00">GenericTemplate</text>
</g>
<!-- \\Famephp\\core\\templates\\GenericTemplate&#45;&gt;\\Famephp\\core\\templates\\Template -->
<g id="edge17" class="edge"><title>\\Famephp\\core\\templates\\GenericTemplate&#45;&gt;\\Famephp\\core\\templates\\Template</title>
<path fill="none" stroke="black" d="M423.488,-318C394.288,-318 359.208,-318 331.043,-318"/>
<polygon fill="none" stroke="black" points="331.003,-314.5 321.003,-318 331.003,-321.5 331.003,-314.5"/>
</g>
<!-- \\Famephp\\core\\templates\\ListTemplate -->
<g id="node24" class="node"><title>\\Famephp\\core\\templates\\ListTemplate</title>
<polygon fill="none" stroke="black" points="742,-336 644,-336 644,-300 742,-300 742,-336"/>
<text text-anchor="middle" x="693" y="-315.2" font-family="Courier,monospace" font-size="11.00">ListTemplate</text>
</g>
<!-- \\Famephp\\core\\templates\\ListTemplate&#45;&gt;\\Famephp\\core\\templates\\GenericTemplate -->
<g id="edge18" class="edge"><title>\\Famephp\\core\\templates\\ListTemplate&#45;&gt;\\Famephp\\core\\templates\\GenericTemplate</title>
<path fill="none" stroke="black" d="M643.904,-318C616.568,-318 581.888,-318 551.774,-318"/>
<polygon fill="none" stroke="black" points="551.754,-314.5 541.754,-318 551.754,-321.5 551.754,-314.5"/>
</g>
<!-- \\Famephp\\core\\templates\\MediaTemplate -->
<g id="node25" class="node"><title>\\Famephp\\core\\templates\\MediaTemplate</title>
<polygon fill="none" stroke="black" points="534.5,-282 430.5,-282 430.5,-246 534.5,-246 534.5,-282"/>
<text text-anchor="middle" x="482.5" y="-261.2" font-family="Courier,monospace" font-size="11.00">MediaTemplate</text>
</g>
<!-- \\Famephp\\core\\templates\\MediaTemplate&#45;&gt;\\Famephp\\core\\templates\\Template -->
<g id="edge19" class="edge"><title>\\Famephp\\core\\templates\\MediaTemplate&#45;&gt;\\Famephp\\core\\templates\\Template</title>
<path fill="none" stroke="black" d="M430.393,-277.696C400.014,-285.837 361.608,-296.13 331.211,-304.276"/>
<polygon fill="none" stroke="black" points="329.986,-300.981 321.233,-306.95 331.798,-307.742 329.986,-300.981"/>
</g>
<!-- \\Famephp\\core\\templates\\OpenGraphTemplate -->
<g id="node26" class="node"><title>\\Famephp\\core\\templates\\OpenGraphTemplate</title>
<polygon fill="none" stroke="black" points="548,-228 417,-228 417,-192 548,-192 548,-228"/>
<text text-anchor="middle" x="482.5" y="-207.2" font-family="Courier,monospace" font-size="11.00">OpenGraphTemplate</text>
</g>
<!-- \\Famephp\\core\\templates\\OpenGraphTemplate&#45;&gt;\\Famephp\\core\\templates\\Template -->
<g id="edge20" class="edge"><title>\\Famephp\\core\\templates\\OpenGraphTemplate&#45;&gt;\\Famephp\\core\\templates\\Template</title>
<path fill="none" stroke="black" d="M416.872,-224.357C405.959,-227.824 394.952,-232.008 385,-237 355.751,-251.672 326.613,-275.021 306.48,-292.889"/>
<polygon fill="none" stroke="black" points="304.034,-290.381 298.959,-299.681 308.726,-295.576 304.034,-290.381"/>
</g>
<!-- \\Famephp\\core\\templates\\Template&#45;&gt;\\Famephp\\core\\contracts\\JsonSerializable -->
<g id="edge21" class="edge"><title>\\Famephp\\core\\templates\\Template&#45;&gt;\\Famephp\\core\\contracts\\JsonSerializable</title>
<path fill="none" stroke="black" stroke-dasharray="1,5" d="M265.45,-336.339C235.015,-380.815 157.172,-494.568 121.657,-546.466"/>
<polygon fill="none" stroke="black" points="118.695,-544.598 115.936,-554.827 124.472,-548.551 118.695,-544.598"/>
</g>
<!-- \\Famephp\\core\\visuals\\QuickReply -->
<g id="node28" class="node"><title>\\Famephp\\core\\visuals\\QuickReply</title>
<polygon fill="none" stroke="black" points="321,-470 237,-470 237,-434 321,-434 321,-470"/>
<text text-anchor="middle" x="279" y="-449.2" font-family="Courier,monospace" font-size="11.00">QuickReply</text>
</g>
<!-- \\Famephp\\core\\visuals\\QuickReply&#45;&gt;\\Famephp\\core\\contracts\\JsonSerializable -->
<g id="edge22" class="edge"><title>\\Famephp\\core\\visuals\\QuickReply&#45;&gt;\\Famephp\\core\\contracts\\JsonSerializable</title>
<path fill="none" stroke="black" stroke-dasharray="1,5" d="M251.876,-470.115C221.59,-491.115 171.558,-525.808 138.072,-549.027"/>
<polygon fill="none" stroke="black" points="135.741,-546.385 129.518,-554.959 139.73,-552.137 135.741,-546.385"/>
</g>
<!-- \\Famephp\\core\\Asset -->
<g id="node29" class="node"><title>\\Famephp\\core\\Asset</title>
<polygon fill="none" stroke="black" points="720,-176 666,-176 666,-140 720,-140 720,-176"/>
<text text-anchor="middle" x="693" y="-155.2" font-family="Courier,monospace" font-size="11.00">Asset</text>
</g>
<!-- \\Famephp\\core\\Message -->
<g id="node30" class="node"><title>\\Famephp\\core\\Message</title>
<polygon fill="none" stroke="black" points="725,-122 661,-122 661,-86 725,-86 725,-122"/>
<text text-anchor="middle" x="693" y="-101.2" font-family="Courier,monospace" font-size="11.00">Message</text>
</g>
<!-- \\Famephp\\core\\User -->
<g id="node31" class="node"><title>\\Famephp\\core\\User</title>
<polygon fill="none" stroke="black" points="720,-68 666,-68 666,-32 720,-32 720,-68"/>
<text text-anchor="middle" x="693" y="-47.2" font-family="Courier,monospace" font-size="11.00">User</text>
</g>
</g>
</svg>
